G04*
G04 #@! TF.GenerationSoftware,Altium Limited,CircuitMaker,2.2.1 (2.2.1.6)*
G04*
G04 Layer_Physical_Order=4*
G04 Layer_Color=56745*
%FSLAX25Y25*%
%MOIN*%
G70*
G04*
G04 #@! TF.SameCoordinates,FB4DA932-24D3-4F87-B050-2CA4388B978A*
G04*
G04*
G04 #@! TF.FilePolarity,Positive*
G04*
G01*
G75*
%ADD12C,0.00787*%
%ADD56C,0.05905*%
%ADD57C,0.01772*%
G36*
X157841Y230557D02*
X158558Y230261D01*
X159203Y229830D01*
X159751Y229281D01*
X160182Y228637D01*
X160479Y227920D01*
X160630Y227159D01*
Y226772D01*
Y103937D01*
Y103549D01*
X160479Y102789D01*
X160182Y102072D01*
X159751Y101427D01*
X159203Y100879D01*
X158558Y100448D01*
X157841Y100151D01*
X157081Y100000D01*
X103549D01*
X102789Y100151D01*
X102072Y100448D01*
X101427Y100879D01*
X100879Y101427D01*
X100448Y102072D01*
X100151Y102789D01*
X100000Y103549D01*
Y103937D01*
Y226772D01*
Y227159D01*
X100151Y227920D01*
X100448Y228637D01*
X100879Y229281D01*
X101427Y229830D01*
X102072Y230261D01*
X102789Y230557D01*
X103549Y230709D01*
X157081D01*
X157841Y230557D01*
D02*
G37*
%LPC*%
G36*
X140630Y227370D02*
X140079D01*
X139569Y227159D01*
X139180Y226769D01*
X138969Y226260D01*
Y225709D01*
X139180Y225199D01*
X139569Y224809D01*
X140079Y224598D01*
X140630D01*
X141139Y224809D01*
X141529Y225199D01*
X141740Y225709D01*
Y226260D01*
X141529Y226769D01*
X141139Y227159D01*
X140630Y227370D01*
D02*
G37*
G36*
X126850D02*
X126299D01*
X125790Y227159D01*
X125400Y226769D01*
X125189Y226260D01*
Y225709D01*
X125400Y225199D01*
X125790Y224809D01*
X126299Y224598D01*
X126850D01*
X127360Y224809D01*
X127750Y225199D01*
X127961Y225709D01*
Y226260D01*
X127750Y226769D01*
X127360Y227159D01*
X126850Y227370D01*
D02*
G37*
G36*
X105573Y228768D02*
X104664D01*
X103785Y228532D01*
X102998Y228078D01*
X102355Y227435D01*
X101901Y226648D01*
X101665Y225769D01*
Y224860D01*
X101901Y223982D01*
X102355Y223195D01*
X102998Y222552D01*
X103785Y222097D01*
X104664Y221862D01*
X105573D01*
X106451Y222097D01*
X107238Y222552D01*
X107881Y223195D01*
X108336Y223982D01*
X108571Y224860D01*
Y225769D01*
X108336Y226648D01*
X107881Y227435D01*
X107238Y228078D01*
X106451Y228532D01*
X105573Y228768D01*
D02*
G37*
G36*
X155573D02*
X154664D01*
X153785Y228532D01*
X152998Y228078D01*
X152355Y227435D01*
X151901Y226648D01*
X151665Y225769D01*
Y224860D01*
X151901Y223982D01*
X152355Y223195D01*
X152998Y222552D01*
X153397Y222322D01*
X153479Y221697D01*
X150185Y218403D01*
X149761Y218686D01*
X149920Y219068D01*
X150011Y219764D01*
Y225669D01*
X149920Y226365D01*
X149651Y227013D01*
X149224Y227570D01*
X148667Y227997D01*
X148019Y228266D01*
X147323Y228358D01*
X146627Y228266D01*
X145979Y227997D01*
X145422Y227570D01*
X144995Y227013D01*
X144726Y226365D01*
X144634Y225669D01*
Y219764D01*
X144726Y219068D01*
X144766Y218970D01*
X144706Y218832D01*
X144415Y218512D01*
X144016D01*
X143506Y218301D01*
X143116Y217911D01*
X142905Y217402D01*
Y216850D01*
X143116Y216341D01*
X143506Y215951D01*
X143581Y215920D01*
Y215379D01*
X143506Y215348D01*
X143116Y214958D01*
X142905Y214449D01*
Y213898D01*
X143116Y213388D01*
X143506Y212998D01*
X144016Y212787D01*
X144567D01*
X145076Y212998D01*
X145466Y213388D01*
X145677Y213898D01*
Y214449D01*
X145466Y214958D01*
X145076Y215348D01*
X145002Y215379D01*
Y215920D01*
X145076Y215951D01*
X145466Y216341D01*
X145677Y216850D01*
Y217038D01*
X145736Y217115D01*
X146177Y217353D01*
X146627Y217167D01*
X147323Y217075D01*
X148019Y217167D01*
X148667Y217436D01*
X148885Y217603D01*
X149322Y217308D01*
X149286Y217126D01*
Y214551D01*
X143914Y209179D01*
X133052D01*
X132765Y209679D01*
X132882Y209961D01*
Y210512D01*
X132671Y211021D01*
X132281Y211411D01*
X131772Y211622D01*
X131220D01*
X130711Y211411D01*
X130321Y211021D01*
X130290Y210946D01*
X129749D01*
X129718Y211021D01*
X129328Y211411D01*
X128819Y211622D01*
X128268D01*
X127758Y211411D01*
X127368Y211021D01*
X127157Y210512D01*
Y209961D01*
X127274Y209679D01*
X126988Y209179D01*
X112860D01*
X112596Y209443D01*
X112087Y209653D01*
X111535D01*
X111026Y209443D01*
X110636Y209053D01*
X110425Y208543D01*
Y207992D01*
X110636Y207483D01*
X111026Y207093D01*
X111535Y206882D01*
X112087D01*
X112596Y207093D01*
X112860Y207357D01*
X144291D01*
X144640Y207426D01*
X144936Y207623D01*
X150841Y213529D01*
X151039Y213825D01*
X151108Y214173D01*
Y216748D01*
X151755Y217396D01*
X152155Y217089D01*
X151901Y216648D01*
X151665Y215770D01*
Y214860D01*
X151901Y213982D01*
X152119Y213604D01*
X150537Y212022D01*
X150339Y211727D01*
X150270Y211378D01*
Y204739D01*
X149770Y204640D01*
X149651Y204927D01*
X149224Y205484D01*
X148667Y205911D01*
X148019Y206179D01*
X147323Y206271D01*
X146627Y206179D01*
X145979Y205911D01*
X145422Y205484D01*
X144995Y204927D01*
X144726Y204278D01*
X144634Y203583D01*
Y199646D01*
X144726Y198950D01*
X144995Y198301D01*
X145422Y197745D01*
X145979Y197318D01*
X146627Y197049D01*
X147323Y196957D01*
X148019Y197049D01*
X148667Y197318D01*
X149224Y197745D01*
X149651Y198301D01*
X149770Y198589D01*
X150270Y198489D01*
Y197818D01*
X148568Y196117D01*
X148371Y195821D01*
X148301Y195472D01*
Y181757D01*
X148038Y181494D01*
X147827Y180984D01*
Y180433D01*
X148038Y179924D01*
X148428Y179534D01*
X148937Y179323D01*
X149156D01*
X149363Y178823D01*
X149249Y178709D01*
X149052Y178413D01*
X148983Y178065D01*
Y173745D01*
X147962Y172725D01*
X147765Y172429D01*
X147753Y172373D01*
X147530Y172287D01*
X147221Y172259D01*
X146897Y172583D01*
X146388Y172793D01*
X145836D01*
X145327Y172583D01*
X144937Y172193D01*
X144896Y172093D01*
X144369Y172059D01*
X143979Y172449D01*
X144014Y172976D01*
X144113Y173017D01*
X144503Y173407D01*
X144714Y173916D01*
Y174467D01*
X144503Y174977D01*
X144113Y175366D01*
X143604Y175577D01*
X143052D01*
X142543Y175366D01*
X142153Y174977D01*
X142112Y174877D01*
X141585Y174843D01*
X141195Y175233D01*
X141230Y175759D01*
X141329Y175801D01*
X141719Y176190D01*
X141930Y176700D01*
Y177251D01*
X141719Y177761D01*
X141329Y178150D01*
X140820Y178361D01*
X140269D01*
X139759Y178150D01*
X139369Y177761D01*
X139328Y177661D01*
X138801Y177627D01*
X138411Y178016D01*
X138446Y178543D01*
X138545Y178585D01*
X138935Y178974D01*
X139146Y179484D01*
Y180035D01*
X138935Y180544D01*
X138545Y180934D01*
X138036Y181145D01*
X137485D01*
X136975Y180934D01*
X136585Y180544D01*
X136544Y180445D01*
X136017Y180411D01*
X135627Y180800D01*
X135118Y181011D01*
X134567D01*
X134057Y180800D01*
X133668Y180411D01*
X133457Y179901D01*
Y179528D01*
X129955Y176026D01*
X129455Y176233D01*
Y176870D01*
X129385Y177218D01*
X129188Y177514D01*
X127173Y179528D01*
Y179901D01*
X126962Y180411D01*
X126572Y180800D01*
X126063Y181011D01*
X125512D01*
X125002Y180800D01*
X124613Y180411D01*
X124086Y180445D01*
X124045Y180544D01*
X123655Y180934D01*
X123145Y181145D01*
X122594D01*
X122085Y180934D01*
X121695Y180544D01*
X121484Y180035D01*
Y179484D01*
X121695Y178974D01*
X122085Y178585D01*
X122184Y178543D01*
X122219Y178016D01*
X121829Y177627D01*
X121302Y177661D01*
X121261Y177761D01*
X120871Y178150D01*
X120361Y178361D01*
X119810D01*
X119301Y178150D01*
X118911Y177761D01*
X118700Y177251D01*
Y176700D01*
X118911Y176190D01*
X119301Y175801D01*
X119400Y175759D01*
X119435Y175233D01*
X119045Y174843D01*
X118518Y174877D01*
X118477Y174977D01*
X118087Y175366D01*
X117578Y175577D01*
X117026D01*
X116517Y175366D01*
X116253Y175103D01*
X113168D01*
X112819Y175033D01*
X112524Y174836D01*
X109198Y171511D01*
X109001Y171215D01*
X108931Y170866D01*
Y166356D01*
X108431Y166290D01*
X108336Y166648D01*
X107881Y167435D01*
X107238Y168078D01*
X106451Y168532D01*
X105573Y168768D01*
X104664D01*
X103785Y168532D01*
X102998Y168078D01*
X102355Y167435D01*
X101901Y166648D01*
X101665Y165770D01*
Y164860D01*
X101901Y163982D01*
X102355Y163195D01*
X102998Y162552D01*
X103785Y162098D01*
X104664Y161862D01*
X105573D01*
X106451Y162098D01*
X107238Y162552D01*
X107881Y163195D01*
X108336Y163982D01*
X108431Y164340D01*
X108931Y164274D01*
Y156356D01*
X108431Y156290D01*
X108336Y156648D01*
X107881Y157435D01*
X107238Y158078D01*
X106451Y158532D01*
X105573Y158768D01*
X104664D01*
X103785Y158532D01*
X102998Y158078D01*
X102355Y157435D01*
X101901Y156648D01*
X101665Y155770D01*
Y154860D01*
X101901Y153982D01*
X102355Y153195D01*
X102998Y152552D01*
X103785Y152097D01*
X104664Y151862D01*
X105573D01*
X106451Y152097D01*
X107238Y152552D01*
X107881Y153195D01*
X108336Y153982D01*
X108431Y154340D01*
X108931Y154274D01*
Y153150D01*
X109001Y152801D01*
X109198Y152505D01*
X110605Y151098D01*
X110585Y150914D01*
X110443Y150554D01*
X110042Y150387D01*
X109652Y149998D01*
X109441Y149488D01*
Y148937D01*
X109652Y148428D01*
X110042Y148038D01*
X110551Y147827D01*
X111102D01*
X111384Y147943D01*
X111884Y147657D01*
Y127559D01*
X111953Y127210D01*
X112151Y126915D01*
X113902Y125164D01*
X113580Y124797D01*
X113071Y125008D01*
X112520D01*
X112010Y124797D01*
X111620Y124407D01*
X111409Y123898D01*
Y123346D01*
X111620Y122837D01*
X112010Y122447D01*
X112520Y122236D01*
X113071D01*
X113580Y122447D01*
X113970Y122837D01*
X114181Y123346D01*
Y123898D01*
X113970Y124407D01*
X114337Y124729D01*
X122711Y116355D01*
Y107874D01*
X122780Y107525D01*
X122978Y107230D01*
X125537Y104671D01*
X125832Y104473D01*
X126181Y104404D01*
X151985D01*
X152097Y103982D01*
X152552Y103195D01*
X153195Y102552D01*
X153982Y102097D01*
X154860Y101862D01*
X155770D01*
X156648Y102097D01*
X157435Y102552D01*
X158078Y103195D01*
X158532Y103982D01*
X158768Y104860D01*
Y105770D01*
X158532Y106648D01*
X158078Y107435D01*
X157435Y108078D01*
X156648Y108532D01*
X155770Y108768D01*
X154860D01*
X153982Y108532D01*
X153195Y108078D01*
X152552Y107435D01*
X152097Y106648D01*
X151985Y106226D01*
X147971D01*
X147780Y106688D01*
X153408Y112316D01*
X153785Y112098D01*
X154664Y111862D01*
X155573D01*
X156451Y112098D01*
X157238Y112552D01*
X157881Y113195D01*
X158336Y113982D01*
X158571Y114860D01*
Y115770D01*
X158336Y116648D01*
X157881Y117435D01*
X157238Y118078D01*
X156451Y118532D01*
X155573Y118768D01*
X154664D01*
X153785Y118532D01*
X152998Y118078D01*
X152355Y117435D01*
X151901Y116648D01*
X151665Y115770D01*
Y114860D01*
X151901Y113982D01*
X152119Y113604D01*
X146028Y107514D01*
X141677D01*
X141470Y108014D01*
X141529Y108073D01*
X141740Y108583D01*
Y109134D01*
X141529Y109643D01*
X141139Y110033D01*
X140630Y110244D01*
X140079D01*
X139569Y110033D01*
X139248Y110400D01*
X139748Y110900D01*
X141339D01*
X141687Y110969D01*
X141983Y111167D01*
X153233Y122417D01*
X153785Y122098D01*
X154664Y121862D01*
X155573D01*
X156451Y122098D01*
X157238Y122552D01*
X157881Y123195D01*
X158336Y123982D01*
X158571Y124860D01*
Y125769D01*
X158336Y126648D01*
X157881Y127435D01*
X157238Y128078D01*
X156451Y128532D01*
X155573Y128768D01*
X154664D01*
X153785Y128532D01*
X152998Y128078D01*
X152355Y127435D01*
X151901Y126648D01*
X151665Y125769D01*
Y124860D01*
X151901Y123982D01*
X152018Y123779D01*
X140961Y112722D01*
X139370D01*
X139021Y112653D01*
X138726Y112455D01*
X135071Y108801D01*
X127632D01*
X127298Y109165D01*
X127328Y109375D01*
X127478Y109471D01*
X127868Y109607D01*
X128268Y109441D01*
X128819D01*
X129328Y109652D01*
X129718Y110042D01*
X129929Y110551D01*
Y111102D01*
X129718Y111612D01*
X129328Y112002D01*
X128819Y112213D01*
X128268D01*
X127758Y112002D01*
X127608Y111851D01*
X127108Y112058D01*
Y117799D01*
X127039Y118148D01*
X126841Y118443D01*
X119915Y125369D01*
Y143840D01*
X119846Y144189D01*
X119648Y144485D01*
X116281Y147852D01*
Y151263D01*
X116212Y151612D01*
X116014Y151908D01*
X113329Y154594D01*
Y157823D01*
X113492Y157946D01*
X113829Y158087D01*
X114242Y157915D01*
X114794D01*
X115303Y158126D01*
X115693Y158516D01*
X115734Y158615D01*
X116261Y158650D01*
X116651Y158260D01*
X116616Y157733D01*
X116517Y157692D01*
X116127Y157302D01*
X115916Y156793D01*
Y156241D01*
X116127Y155732D01*
X116517Y155342D01*
X117026Y155131D01*
X117578D01*
X118087Y155342D01*
X118477Y155732D01*
X118518Y155832D01*
X119045Y155866D01*
X119435Y155476D01*
X119400Y154949D01*
X119301Y154908D01*
X118911Y154518D01*
X118700Y154009D01*
Y153457D01*
X118911Y152948D01*
X119301Y152558D01*
X119810Y152347D01*
X120361D01*
X120871Y152558D01*
X121261Y152948D01*
X121302Y153048D01*
X121829Y153082D01*
X122219Y152692D01*
X122184Y152165D01*
X122085Y152124D01*
X121695Y151734D01*
X121484Y151225D01*
Y150674D01*
X121695Y150164D01*
X122085Y149774D01*
X122594Y149564D01*
X123145D01*
X123655Y149774D01*
X124045Y150164D01*
X124086Y150264D01*
X124613Y150298D01*
X125002Y149908D01*
X125512Y149697D01*
X126063D01*
X126148Y149732D01*
X126648Y149398D01*
Y141339D01*
X126717Y140990D01*
X126915Y140694D01*
X131360Y136249D01*
X131038Y135882D01*
X130529Y136093D01*
X129978D01*
X129468Y135882D01*
X129078Y135492D01*
X128867Y134983D01*
Y134432D01*
X129078Y133922D01*
X129468Y133533D01*
X129978Y133322D01*
X130529D01*
X131038Y133533D01*
X131428Y133922D01*
X131639Y134432D01*
Y134983D01*
X131428Y135492D01*
X131795Y135814D01*
X132938Y134671D01*
X133234Y134473D01*
X133583Y134404D01*
X151788D01*
X151901Y133982D01*
X152355Y133195D01*
X152998Y132552D01*
X153785Y132097D01*
X154664Y131862D01*
X155573D01*
X156451Y132097D01*
X157238Y132552D01*
X157881Y133195D01*
X158336Y133982D01*
X158571Y134860D01*
Y135769D01*
X158336Y136648D01*
X157881Y137435D01*
X157238Y138078D01*
X156451Y138532D01*
X155573Y138768D01*
X154664D01*
X154499Y138724D01*
X154240Y139172D01*
X155762Y140694D01*
X155960Y140990D01*
X156029Y141339D01*
Y141985D01*
X156451Y142097D01*
X157238Y142552D01*
X157881Y143195D01*
X158336Y143982D01*
X158571Y144860D01*
Y145770D01*
X158336Y146648D01*
X157881Y147435D01*
X157238Y148078D01*
X156451Y148532D01*
X155573Y148768D01*
X154664D01*
X153785Y148532D01*
X152998Y148078D01*
X152355Y147435D01*
X151901Y146648D01*
X151665Y145770D01*
Y144860D01*
X151901Y143982D01*
X152355Y143195D01*
X152998Y142552D01*
X153785Y142097D01*
X153868Y142076D01*
X154010Y141520D01*
X150004Y137514D01*
X141920D01*
X141729Y137976D01*
X155631Y151878D01*
X156451Y152097D01*
X157238Y152552D01*
X157881Y153195D01*
X158336Y153982D01*
X158571Y154860D01*
Y155770D01*
X158336Y156648D01*
X157881Y157435D01*
X157238Y158078D01*
X156451Y158532D01*
X155573Y158768D01*
X154664D01*
X153785Y158532D01*
X152998Y158078D01*
X152592Y157672D01*
X152092Y157879D01*
Y158678D01*
X155277Y161862D01*
X155573D01*
X156451Y162098D01*
X157238Y162552D01*
X157881Y163195D01*
X158336Y163982D01*
X158571Y164860D01*
Y165770D01*
X158336Y166648D01*
X157881Y167435D01*
X157238Y168078D01*
X156451Y168532D01*
X155573Y168768D01*
X154664D01*
X153785Y168532D01*
X153503Y168947D01*
X155762Y171206D01*
X155960Y171502D01*
X156029Y171850D01*
Y171985D01*
X156451Y172098D01*
X157238Y172552D01*
X157881Y173195D01*
X158336Y173982D01*
X158571Y174860D01*
Y175769D01*
X158336Y176648D01*
X157881Y177435D01*
X157238Y178078D01*
X156451Y178532D01*
X155573Y178768D01*
X154664D01*
X154321Y178676D01*
X154063Y179124D01*
X155762Y180824D01*
X155960Y181120D01*
X156029Y181468D01*
Y181985D01*
X156451Y182097D01*
X157238Y182552D01*
X157881Y183195D01*
X158336Y183982D01*
X158571Y184860D01*
Y185769D01*
X158336Y186648D01*
X157881Y187435D01*
X157238Y188078D01*
X156451Y188532D01*
X155573Y188768D01*
X154664D01*
X154321Y188676D01*
X154063Y189124D01*
X155762Y190824D01*
X155960Y191120D01*
X156029Y191469D01*
Y191985D01*
X156451Y192097D01*
X157238Y192552D01*
X157881Y193195D01*
X158336Y193982D01*
X158571Y194860D01*
Y195770D01*
X158336Y196648D01*
X157881Y197435D01*
X157238Y198078D01*
X156451Y198532D01*
X155573Y198768D01*
X154664D01*
X153785Y198532D01*
X152998Y198078D01*
X152592Y197672D01*
X152092Y197879D01*
Y202751D01*
X152592Y202958D01*
X152998Y202552D01*
X153785Y202098D01*
X154664Y201862D01*
X155573D01*
X156451Y202098D01*
X157238Y202552D01*
X157881Y203195D01*
X158336Y203982D01*
X158571Y204860D01*
Y205769D01*
X158336Y206648D01*
X157881Y207435D01*
X157238Y208078D01*
X156451Y208532D01*
X155573Y208768D01*
X154664D01*
X153785Y208532D01*
X152998Y208078D01*
X152592Y207672D01*
X152092Y207879D01*
Y211000D01*
X153408Y212316D01*
X153785Y212098D01*
X154664Y211862D01*
X155573D01*
X156451Y212098D01*
X157238Y212552D01*
X157881Y213195D01*
X158336Y213982D01*
X158571Y214860D01*
Y215770D01*
X158336Y216648D01*
X157881Y217435D01*
X157238Y218078D01*
X156451Y218532D01*
X155573Y218768D01*
X154664D01*
X153785Y218532D01*
X153344Y218278D01*
X153037Y218678D01*
X155762Y221403D01*
X155960Y221698D01*
X156016Y221981D01*
X156451Y222097D01*
X157238Y222552D01*
X157881Y223195D01*
X158336Y223982D01*
X158571Y224860D01*
Y225769D01*
X158336Y226648D01*
X157881Y227435D01*
X157238Y228078D01*
X156451Y228532D01*
X155573Y228768D01*
D02*
G37*
G36*
X129803Y220528D02*
X129252D01*
X128743Y220317D01*
X128353Y219927D01*
X128142Y219417D01*
Y218866D01*
X128353Y218357D01*
X128743Y217967D01*
X129252Y217756D01*
X129803D01*
X130313Y217967D01*
X130702Y218357D01*
X130913Y218866D01*
Y219417D01*
X130702Y219927D01*
X130313Y220317D01*
X129803Y220528D01*
D02*
G37*
G36*
X113307Y228358D02*
X112611Y228266D01*
X111963Y227997D01*
X111406Y227570D01*
X110979Y227013D01*
X110710Y226365D01*
X110619Y225669D01*
Y219764D01*
X110710Y219068D01*
X110979Y218420D01*
X111406Y217863D01*
X111963Y217436D01*
X112611Y217167D01*
X113307Y217075D01*
X114003Y217167D01*
X114651Y217436D01*
X115208Y217863D01*
X115635Y218420D01*
X115904Y219068D01*
X115995Y219764D01*
Y225669D01*
X115904Y226365D01*
X115635Y227013D01*
X115208Y227570D01*
X114651Y227997D01*
X114003Y228266D01*
X113307Y228358D01*
D02*
G37*
G36*
X132756Y216543D02*
X132205D01*
X131695Y216332D01*
X131306Y215943D01*
X131095Y215433D01*
Y214882D01*
X131306Y214372D01*
X131695Y213983D01*
X132205Y213772D01*
X132756D01*
X133265Y213983D01*
X133655Y214372D01*
X133866Y214882D01*
Y215433D01*
X133655Y215943D01*
X133265Y216332D01*
X132756Y216543D01*
D02*
G37*
G36*
X113071D02*
X112520D01*
X112010Y216332D01*
X111620Y215943D01*
X111409Y215433D01*
Y214882D01*
X111620Y214372D01*
X112010Y213983D01*
X112520Y213772D01*
X113071D01*
X113580Y213983D01*
X113970Y214372D01*
X114181Y214882D01*
Y215433D01*
X113970Y215943D01*
X113580Y216332D01*
X113071Y216543D01*
D02*
G37*
G36*
X122914Y215559D02*
X122362D01*
X121853Y215348D01*
X121463Y214958D01*
X121252Y214449D01*
Y213898D01*
X121463Y213388D01*
X121853Y212998D01*
X122362Y212787D01*
X122914D01*
X123423Y212998D01*
X123813Y213388D01*
X124024Y213898D01*
Y214449D01*
X123813Y214958D01*
X123423Y215348D01*
X122914Y215559D01*
D02*
G37*
G36*
X105573Y218768D02*
X104664D01*
X103785Y218532D01*
X102998Y218078D01*
X102355Y217435D01*
X101901Y216648D01*
X101665Y215770D01*
Y214860D01*
X101901Y213982D01*
X102355Y213195D01*
X102998Y212552D01*
X103785Y212098D01*
X104664Y211862D01*
X105573D01*
X106451Y212098D01*
X107238Y212552D01*
X107881Y213195D01*
X108336Y213982D01*
X108571Y214860D01*
Y215770D01*
X108336Y216648D01*
X107881Y217435D01*
X107238Y218078D01*
X106451Y218532D01*
X105573Y218768D01*
D02*
G37*
G36*
X118976Y214575D02*
X118425D01*
X117916Y214364D01*
X117526Y213974D01*
X117315Y213465D01*
Y212913D01*
X117526Y212404D01*
X117916Y212014D01*
X118425Y211803D01*
X118976D01*
X119486Y212014D01*
X119876Y212404D01*
X120087Y212913D01*
Y213465D01*
X119876Y213974D01*
X119486Y214364D01*
X118976Y214575D01*
D02*
G37*
G36*
X141614Y212606D02*
X141063D01*
X140554Y212395D01*
X140164Y212005D01*
X139953Y211496D01*
Y210945D01*
X140164Y210436D01*
X140554Y210046D01*
X141063Y209835D01*
X141614D01*
X142124Y210046D01*
X142513Y210436D01*
X142724Y210945D01*
Y211496D01*
X142513Y212005D01*
X142124Y212395D01*
X141614Y212606D01*
D02*
G37*
G36*
X105573Y208768D02*
X104664D01*
X103785Y208532D01*
X102998Y208078D01*
X102355Y207435D01*
X101901Y206648D01*
X101665Y205769D01*
Y204860D01*
X101901Y203982D01*
X102355Y203195D01*
X102998Y202552D01*
X103785Y202098D01*
X104664Y201862D01*
X105573D01*
X106451Y202098D01*
X107238Y202552D01*
X107881Y203195D01*
X108336Y203982D01*
X108571Y204860D01*
Y205769D01*
X108336Y206648D01*
X107881Y207435D01*
X107238Y208078D01*
X106451Y208532D01*
X105573Y208768D01*
D02*
G37*
G36*
X113307Y206271D02*
X112611Y206179D01*
X111963Y205911D01*
X111406Y205484D01*
X110979Y204927D01*
X110710Y204278D01*
X110619Y203583D01*
Y199646D01*
X110710Y198950D01*
X110979Y198301D01*
X111406Y197745D01*
X111963Y197318D01*
X112611Y197049D01*
X113307Y196957D01*
X114003Y197049D01*
X114651Y197318D01*
X115208Y197745D01*
X115635Y198301D01*
X115904Y198950D01*
X115995Y199646D01*
Y203583D01*
X115904Y204278D01*
X115635Y204927D01*
X115208Y205484D01*
X114651Y205911D01*
X114003Y206179D01*
X113307Y206271D01*
D02*
G37*
G36*
X135709Y196858D02*
X135157D01*
X134648Y196647D01*
X134258Y196257D01*
X134047Y195748D01*
Y195197D01*
X134258Y194687D01*
X134648Y194298D01*
X135157Y194087D01*
X135709D01*
X136218Y194298D01*
X136608Y194687D01*
X136819Y195197D01*
Y195748D01*
X136608Y196257D01*
X136218Y196647D01*
X135709Y196858D01*
D02*
G37*
G36*
X105573Y198768D02*
X104664D01*
X103785Y198532D01*
X102998Y198078D01*
X102355Y197435D01*
X101901Y196648D01*
X101665Y195770D01*
Y194860D01*
X101901Y193982D01*
X102355Y193195D01*
X102998Y192552D01*
X103785Y192097D01*
X104664Y191862D01*
X105573D01*
X106451Y192097D01*
X107238Y192552D01*
X107881Y193195D01*
X108336Y193982D01*
X108571Y194860D01*
Y195770D01*
X108336Y196648D01*
X107881Y197435D01*
X107238Y198078D01*
X106451Y198532D01*
X105573Y198768D01*
D02*
G37*
G36*
X128819Y197843D02*
X128268D01*
X127758Y197632D01*
X127368Y197242D01*
X127157Y196732D01*
Y196288D01*
X126981Y196050D01*
X126743Y195874D01*
X126299D01*
X125790Y195663D01*
X125400Y195273D01*
X125189Y194764D01*
Y194212D01*
X125400Y193703D01*
X125790Y193313D01*
X126299Y193102D01*
X126743D01*
X126981Y192926D01*
X127157Y192688D01*
Y192244D01*
X127368Y191735D01*
X127758Y191345D01*
X128268Y191134D01*
X128712D01*
X128950Y190958D01*
X129126Y190720D01*
Y190276D01*
X129337Y189766D01*
X129727Y189376D01*
X130236Y189165D01*
X130788D01*
X131297Y189376D01*
X131687Y189766D01*
X131898Y190276D01*
Y190827D01*
X131687Y191336D01*
X131297Y191726D01*
X130788Y191937D01*
X130343D01*
X130105Y192113D01*
X129929Y192351D01*
Y192795D01*
X129718Y193305D01*
X129328Y193694D01*
X128819Y193905D01*
X128375D01*
X128137Y194082D01*
X127961Y194319D01*
Y194657D01*
X128137Y194895D01*
X128375Y195071D01*
X128819D01*
X129328Y195282D01*
X129718Y195672D01*
X129929Y196181D01*
Y196732D01*
X129718Y197242D01*
X129328Y197632D01*
X128819Y197843D01*
D02*
G37*
G36*
X134724Y185047D02*
X134173D01*
X133664Y184836D01*
X133274Y184446D01*
X133063Y183937D01*
Y183386D01*
X133274Y182876D01*
X133664Y182487D01*
X134173Y182276D01*
X134724D01*
X135234Y182487D01*
X135624Y182876D01*
X135835Y183386D01*
Y183937D01*
X135624Y184446D01*
X135234Y184836D01*
X134724Y185047D01*
D02*
G37*
G36*
X130591Y188000D02*
X130039D01*
X129530Y187789D01*
X129140Y187399D01*
X128929Y186890D01*
Y186338D01*
X129140Y185829D01*
X129422Y185547D01*
X129270Y185049D01*
X129269Y185047D01*
X129252D01*
X128743Y184836D01*
X128353Y184446D01*
X128142Y183937D01*
Y183386D01*
X128353Y182876D01*
X128743Y182487D01*
X129252Y182276D01*
X129803D01*
X130313Y182487D01*
X130702Y182876D01*
X130913Y183386D01*
Y183937D01*
X130702Y184446D01*
X130420Y184728D01*
X130572Y185227D01*
X130574Y185228D01*
X130591D01*
X131100Y185439D01*
X131490Y185829D01*
X131701Y186338D01*
Y186890D01*
X131490Y187399D01*
X131100Y187789D01*
X130591Y188000D01*
D02*
G37*
G36*
X105573Y188768D02*
X104664D01*
X103785Y188532D01*
X102998Y188078D01*
X102355Y187435D01*
X101901Y186648D01*
X101665Y185769D01*
Y184860D01*
X101901Y183982D01*
X102355Y183195D01*
X102998Y182552D01*
X103785Y182097D01*
X104664Y181862D01*
X105573D01*
X106451Y182097D01*
X107238Y182552D01*
X107881Y183195D01*
X108336Y183982D01*
X108571Y184860D01*
Y185769D01*
X108336Y186648D01*
X107881Y187435D01*
X107238Y188078D01*
X106451Y188532D01*
X105573Y188768D01*
D02*
G37*
G36*
X146536Y184063D02*
X145984D01*
X145475Y183852D01*
X145085Y183462D01*
X144874Y182953D01*
Y182402D01*
X145085Y181892D01*
X145475Y181502D01*
X145984Y181291D01*
X146536D01*
X147045Y181502D01*
X147435Y181892D01*
X147646Y182402D01*
Y182953D01*
X147435Y183462D01*
X147045Y183852D01*
X146536Y184063D01*
D02*
G37*
G36*
X105573Y178768D02*
X104664D01*
X103785Y178532D01*
X102998Y178078D01*
X102355Y177435D01*
X101901Y176648D01*
X101665Y175769D01*
Y174860D01*
X101901Y173982D01*
X102355Y173195D01*
X102998Y172552D01*
X103785Y172098D01*
X104664Y171862D01*
X105573D01*
X106451Y172098D01*
X107238Y172552D01*
X107881Y173195D01*
X108336Y173982D01*
X108571Y174860D01*
Y175769D01*
X108336Y176648D01*
X107881Y177435D01*
X107238Y178078D01*
X106451Y178532D01*
X105573Y178768D01*
D02*
G37*
G36*
Y148768D02*
X104664D01*
X103785Y148532D01*
X102998Y148078D01*
X102355Y147435D01*
X101901Y146648D01*
X101665Y145770D01*
Y144860D01*
X101901Y143982D01*
X102355Y143195D01*
X102998Y142552D01*
X103785Y142097D01*
X104664Y141862D01*
X105573D01*
X106451Y142097D01*
X107238Y142552D01*
X107881Y143195D01*
X107957Y143326D01*
X108457Y143192D01*
Y143031D01*
X108668Y142522D01*
X109057Y142132D01*
X109567Y141921D01*
X110118D01*
X110627Y142132D01*
X111017Y142522D01*
X111228Y143031D01*
Y143583D01*
X111017Y144092D01*
X110627Y144482D01*
X110118Y144693D01*
X109567D01*
X109057Y144482D01*
X108961Y144386D01*
X108513Y144644D01*
X108571Y144860D01*
Y145770D01*
X108336Y146648D01*
X107881Y147435D01*
X107238Y148078D01*
X106451Y148532D01*
X105573Y148768D01*
D02*
G37*
G36*
X149488Y142724D02*
X148937D01*
X148428Y142513D01*
X148038Y142124D01*
X147827Y141614D01*
Y141063D01*
X148038Y140554D01*
X148428Y140164D01*
X148937Y139953D01*
X149488D01*
X149998Y140164D01*
X150387Y140554D01*
X150598Y141063D01*
Y141614D01*
X150387Y142124D01*
X149998Y142513D01*
X149488Y142724D01*
D02*
G37*
G36*
X105573Y138768D02*
X104664D01*
X103785Y138532D01*
X102998Y138078D01*
X102355Y137435D01*
X101901Y136648D01*
X101665Y135769D01*
Y134860D01*
X101901Y133982D01*
X102355Y133195D01*
X102998Y132552D01*
X103785Y132097D01*
X104664Y131862D01*
X105573D01*
X106451Y132097D01*
X107238Y132552D01*
X107881Y133195D01*
X108336Y133982D01*
X108571Y134860D01*
Y135769D01*
X108336Y136648D01*
X107881Y137435D01*
X107238Y138078D01*
X106451Y138532D01*
X105573Y138768D01*
D02*
G37*
G36*
X128819Y132882D02*
X128268D01*
X127758Y132671D01*
X127368Y132281D01*
X127157Y131772D01*
Y131220D01*
X127368Y130711D01*
X127758Y130321D01*
X128268Y130110D01*
X128819D01*
X129328Y130321D01*
X129718Y130711D01*
X129929Y131220D01*
Y131772D01*
X129718Y132281D01*
X129328Y132671D01*
X128819Y132882D01*
D02*
G37*
G36*
X125866Y128945D02*
X125315D01*
X124805Y128734D01*
X124416Y128344D01*
X124205Y127835D01*
Y127283D01*
X124416Y126774D01*
X124805Y126384D01*
X125315Y126173D01*
X125866D01*
X126375Y126384D01*
X126765Y126774D01*
X126976Y127283D01*
Y127835D01*
X126765Y128344D01*
X126375Y128734D01*
X125866Y128945D01*
D02*
G37*
G36*
X105573Y128768D02*
X104664D01*
X103785Y128532D01*
X102998Y128078D01*
X102355Y127435D01*
X101901Y126648D01*
X101665Y125769D01*
Y124860D01*
X101901Y123982D01*
X102355Y123195D01*
X102998Y122552D01*
X103785Y122098D01*
X104664Y121862D01*
X105573D01*
X106451Y122098D01*
X107238Y122552D01*
X107881Y123195D01*
X108336Y123982D01*
X108571Y124860D01*
Y125769D01*
X108336Y126648D01*
X107881Y127435D01*
X107238Y128078D01*
X106451Y128532D01*
X105573Y128768D01*
D02*
G37*
G36*
X134724Y118118D02*
X134173D01*
X133664Y117907D01*
X133274Y117517D01*
X133063Y117008D01*
Y116457D01*
X133274Y115947D01*
X133664Y115557D01*
X134173Y115347D01*
X134724D01*
X135234Y115557D01*
X135624Y115947D01*
X135835Y116457D01*
Y117008D01*
X135624Y117517D01*
X135234Y117907D01*
X134724Y118118D01*
D02*
G37*
G36*
X118976D02*
X118425D01*
X117916Y117907D01*
X117526Y117517D01*
X117315Y117008D01*
Y116457D01*
X117526Y115947D01*
X117916Y115557D01*
X118425Y115347D01*
X118976D01*
X119486Y115557D01*
X119876Y115947D01*
X120087Y116457D01*
Y117008D01*
X119876Y117517D01*
X119486Y117907D01*
X118976Y118118D01*
D02*
G37*
G36*
X105573Y118768D02*
X104664D01*
X103785Y118532D01*
X102998Y118078D01*
X102355Y117435D01*
X101901Y116648D01*
X101665Y115770D01*
Y114860D01*
X101901Y113982D01*
X102355Y113195D01*
X102998Y112552D01*
X103785Y112098D01*
X104664Y111862D01*
X105573D01*
X106451Y112098D01*
X107238Y112552D01*
X107881Y113195D01*
X108336Y113982D01*
X108571Y114860D01*
Y115770D01*
X108336Y116648D01*
X107881Y117435D01*
X107238Y118078D01*
X106451Y118532D01*
X105573Y118768D01*
D02*
G37*
G36*
X111102Y111228D02*
X110551D01*
X110042Y111017D01*
X109652Y110627D01*
X109441Y110118D01*
Y109567D01*
X109652Y109057D01*
X110042Y108668D01*
X110551Y108457D01*
X111102D01*
X111612Y108668D01*
X112002Y109057D01*
X112213Y109567D01*
Y110118D01*
X112002Y110627D01*
X111612Y111017D01*
X111102Y111228D01*
D02*
G37*
G36*
X120945Y110244D02*
X120394D01*
X119884Y110033D01*
X119494Y109643D01*
X119283Y109134D01*
Y108583D01*
X119494Y108073D01*
X119884Y107683D01*
X120394Y107473D01*
X120945D01*
X121454Y107683D01*
X121844Y108073D01*
X122055Y108583D01*
Y109134D01*
X121844Y109643D01*
X121454Y110033D01*
X120945Y110244D01*
D02*
G37*
G36*
X105770Y108768D02*
X104860D01*
X103982Y108532D01*
X103195Y108078D01*
X102552Y107435D01*
X102097Y106648D01*
X101862Y105770D01*
Y104860D01*
X102097Y103982D01*
X102552Y103195D01*
X103195Y102552D01*
X103982Y102097D01*
X104860Y101862D01*
X105770D01*
X106648Y102097D01*
X107435Y102552D01*
X108078Y103195D01*
X108532Y103982D01*
X108768Y104860D01*
Y105770D01*
X108532Y106648D01*
X108078Y107435D01*
X107435Y108078D01*
X106648Y108532D01*
X105770Y108768D01*
D02*
G37*
%LPD*%
G36*
X131423Y167683D02*
X131139Y167259D01*
X130728Y167429D01*
X129902D01*
X129140Y167113D01*
X128556Y166530D01*
X128240Y165767D01*
Y164942D01*
X128556Y164179D01*
X129140Y163595D01*
X129902Y163279D01*
X130575D01*
X130820Y162820D01*
X130820Y162818D01*
X129671Y161668D01*
X129473Y161372D01*
X129404Y161024D01*
Y155068D01*
X128942Y154876D01*
X127486Y156332D01*
Y170926D01*
X127647Y171036D01*
X127986Y171119D01*
X131423Y167683D01*
D02*
G37*
G36*
X123534Y171036D02*
X123695Y170926D01*
Y156102D01*
X123765Y155754D01*
X123913Y155532D01*
X123808Y155312D01*
X123602Y155119D01*
X123279Y155253D01*
X122728D01*
X122219Y155042D01*
X121829Y154652D01*
X121788Y154553D01*
X121261Y154518D01*
X120871Y154908D01*
X120905Y155435D01*
X121005Y155476D01*
X121395Y155866D01*
X121605Y156375D01*
Y156927D01*
X121395Y157436D01*
X121005Y157826D01*
X120495Y158037D01*
X119944D01*
X119435Y157826D01*
X119045Y157436D01*
X119004Y157336D01*
X118477Y157302D01*
X118087Y157692D01*
X118121Y158219D01*
X118221Y158260D01*
X118611Y158650D01*
X118822Y159159D01*
Y159711D01*
X118611Y160220D01*
X118221Y160610D01*
X117711Y160821D01*
X117160D01*
X116651Y160610D01*
X116261Y160220D01*
X116220Y160120D01*
X115693Y160086D01*
X115303Y160476D01*
X114794Y160687D01*
X114242D01*
X113829Y160515D01*
X113492Y160656D01*
X113329Y160778D01*
Y162745D01*
X113829Y162952D01*
X113979Y162802D01*
X114488Y162591D01*
X115039D01*
X115549Y162802D01*
X115939Y163191D01*
X116150Y163701D01*
Y164252D01*
X115939Y164761D01*
X115549Y165151D01*
X115039Y165362D01*
X114488D01*
X113979Y165151D01*
X113829Y165001D01*
X113329Y165208D01*
Y167158D01*
X113466Y167296D01*
X118994D01*
X119343Y167365D01*
X119639Y167563D01*
X123195Y171119D01*
X123534Y171036D01*
D02*
G37*
G36*
X136335Y176338D02*
X136451Y176057D01*
X136841Y175667D01*
X137351Y175456D01*
X137902D01*
X138411Y175667D01*
X138801Y176057D01*
X138842Y176156D01*
X139369Y176190D01*
X139759Y175801D01*
X139725Y175274D01*
X139625Y175233D01*
X139235Y174843D01*
X139024Y174333D01*
Y173782D01*
X139235Y173273D01*
X139625Y172883D01*
X140135Y172672D01*
X140686D01*
X141195Y172883D01*
X141585Y173273D01*
X141626Y173372D01*
X142153Y173407D01*
X142543Y173017D01*
X142509Y172490D01*
X142409Y172449D01*
X142019Y172059D01*
X141808Y171549D01*
Y170998D01*
X142019Y170489D01*
X142409Y170099D01*
X142919Y169888D01*
X143470D01*
X143979Y170099D01*
X144369Y170489D01*
X144410Y170588D01*
X144937Y170623D01*
X145327Y170233D01*
X145836Y170022D01*
X146388D01*
X146897Y170233D01*
X147195Y170531D01*
X147626Y170419D01*
X147695Y170378D01*
Y165568D01*
X142948Y160821D01*
X142919D01*
X142409Y160610D01*
X142019Y160220D01*
X141808Y159711D01*
Y159159D01*
X142019Y158650D01*
X142409Y158260D01*
X142509Y158219D01*
X142543Y157692D01*
X142153Y157302D01*
X141626Y157336D01*
X141585Y157436D01*
X141195Y157826D01*
X140686Y158037D01*
X140135D01*
X139625Y157826D01*
X139235Y157436D01*
X139024Y156927D01*
Y156375D01*
X139235Y155866D01*
X139625Y155476D01*
X139725Y155435D01*
X139759Y154908D01*
X139369Y154518D01*
X138842Y154553D01*
X138801Y154652D01*
X138411Y155042D01*
X137902Y155253D01*
X137351D01*
X136841Y155042D01*
X136451Y154652D01*
X136241Y154143D01*
Y153591D01*
X136451Y153082D01*
X136841Y152692D01*
X136941Y152651D01*
X136975Y152124D01*
X136585Y151734D01*
X136058Y151769D01*
X136017Y151868D01*
X135627Y152258D01*
X135118Y152469D01*
X134567D01*
X134301Y152359D01*
X133801Y152655D01*
Y159580D01*
X136003Y161781D01*
X136200Y162077D01*
X136269Y162426D01*
Y168677D01*
X136200Y169025D01*
X136003Y169321D01*
X133104Y172220D01*
Y173815D01*
X135779Y176489D01*
X136335Y176338D01*
D02*
G37*
G36*
X142112Y155832D02*
X142153Y155732D01*
X142543Y155342D01*
X143052Y155131D01*
X143425D01*
X145067Y153489D01*
X145362Y153292D01*
X145711Y153223D01*
X146700D01*
X146892Y152761D01*
X136381Y142250D01*
X135219D01*
X133801Y143668D01*
Y149512D01*
X134301Y149808D01*
X134567Y149697D01*
X135118D01*
X135627Y149908D01*
X136017Y150298D01*
X136544Y150264D01*
X136585Y150164D01*
X136975Y149774D01*
X137485Y149564D01*
X138036D01*
X138545Y149774D01*
X138935Y150164D01*
X139146Y150674D01*
Y151225D01*
X138935Y151734D01*
X138545Y152124D01*
X138446Y152165D01*
X138411Y152692D01*
X138801Y153082D01*
X139328Y153048D01*
X139369Y152948D01*
X139759Y152558D01*
X140269Y152347D01*
X140820D01*
X141329Y152558D01*
X141719Y152948D01*
X141930Y153457D01*
Y154009D01*
X141719Y154518D01*
X141329Y154908D01*
X141230Y154949D01*
X141195Y155476D01*
X141585Y155866D01*
X142112Y155832D01*
D02*
G37*
G36*
X116805Y142930D02*
Y125491D01*
X116343Y125300D01*
X113707Y127936D01*
Y140767D01*
X114207Y141054D01*
X114488Y140937D01*
X115039D01*
X115549Y141148D01*
X115939Y141538D01*
X116150Y142047D01*
Y142598D01*
X115939Y143108D01*
X116305Y143430D01*
X116805Y142930D01*
D02*
G37*
G36*
X152355Y153195D02*
X152998Y152552D01*
X153105Y152490D01*
X153170Y151995D01*
X139977Y138801D01*
X137983D01*
X137792Y139263D01*
X151758Y153229D01*
X152066Y153250D01*
X152355Y153195D01*
D02*
G37*
D12*
X155118Y222047D02*
Y225315D01*
X150197Y217126D02*
X155118Y222047D01*
X150197Y214173D02*
Y217126D01*
X144291Y208268D02*
X150197Y214173D01*
X111811Y208268D02*
X144291D01*
X151181Y211378D02*
X155118Y215315D01*
X151181Y197441D02*
Y211378D01*
X149213Y195472D02*
X151181Y197441D01*
X149213Y180709D02*
Y195472D01*
X155118Y191469D02*
Y195315D01*
X151181Y187531D02*
X155118Y191469D01*
X151181Y179352D02*
Y187531D01*
X149894Y178065D02*
X151181Y179352D01*
X149894Y173368D02*
Y178065D01*
X148606Y172081D02*
X149894Y173368D01*
X148606Y165191D02*
Y172081D01*
X143194Y159779D02*
X148606Y165191D01*
X143194Y159435D02*
Y159779D01*
X155118Y181468D02*
Y185315D01*
X151181Y177532D02*
X155118Y181468D01*
X151181Y172835D02*
Y177532D01*
X149894Y171547D02*
X151181Y172835D01*
Y159055D02*
X155118Y162992D01*
X151181Y153941D02*
Y159055D01*
Y167913D02*
X155118Y171850D01*
X151181Y160876D02*
Y167913D01*
X149894Y159588D02*
X151181Y160876D01*
X149894Y154474D02*
Y159588D01*
Y161409D02*
Y171547D01*
X148606Y160122D02*
X149894Y161409D01*
X148606Y155007D02*
Y160122D01*
X147733Y154134D02*
X148606Y155007D01*
X145711Y154134D02*
X147733D01*
X143328Y156517D02*
X145711Y154134D01*
X113089Y168207D02*
X118994D01*
X112417Y167535D02*
X113089Y168207D01*
X112417Y154216D02*
Y167535D01*
X155118Y171850D02*
Y175315D01*
X136758Y141339D02*
X149894Y154474D01*
X134842Y141339D02*
X136758D01*
X131602Y142757D02*
Y160490D01*
X130315Y142224D02*
X134649Y137890D01*
X130315Y142224D02*
Y161024D01*
X128847Y141872D02*
X134116Y136602D01*
X128847Y141872D02*
Y145579D01*
X128854Y145587D01*
Y153675D01*
X127559Y141339D02*
X133583Y135315D01*
X127559Y141339D02*
Y150338D01*
X134649Y137890D02*
X140354D01*
X134116Y136602D02*
X150382D01*
X127559Y150338D02*
X127567Y150346D01*
X133583Y135315D02*
X155118D01*
X132890Y143290D02*
X134842Y141339D01*
X131602Y142757D02*
X135182Y139177D01*
X136417D01*
X132890Y143290D02*
Y159957D01*
X135358Y162426D01*
Y168677D01*
X132193Y171842D02*
X135358Y168677D01*
X132193Y171842D02*
Y174192D01*
X137760Y179759D01*
X155118Y162992D02*
Y165315D01*
X136417Y139177D02*
X151181Y153941D01*
X140354Y137890D02*
X155118Y152654D01*
X150382Y136602D02*
X155118Y141339D01*
X131602Y160490D02*
X134071Y162959D01*
Y168143D01*
X130315Y171899D02*
X134071Y168143D01*
X130315Y171899D02*
Y175098D01*
X134843Y179625D01*
X155118Y152654D02*
Y155315D01*
X130315Y161024D02*
X132783Y163492D01*
Y167610D01*
X128543Y171850D02*
X132783Y167610D01*
X126575Y155955D02*
Y176054D01*
Y155955D02*
X128854Y153675D01*
X128543Y171850D02*
Y176870D01*
X125787Y179625D02*
X128543Y176870D01*
X155118Y141339D02*
Y145315D01*
X124606Y156102D02*
X127567Y153142D01*
Y150346D02*
Y153142D01*
X122870Y179759D02*
X126575Y176054D01*
X124606Y156102D02*
Y175239D01*
X123003Y176842D02*
X124606Y175239D01*
X154842Y125315D02*
X155118D01*
X141339Y111811D02*
X154842Y125315D01*
X139370Y111811D02*
X141339D01*
X135449Y107890D02*
X139370Y111811D01*
X127248Y107890D02*
X135449D01*
X126197Y108940D02*
X127248Y107890D01*
X126197Y108940D02*
Y117799D01*
X119004Y124992D02*
X126197Y117799D01*
X119004Y124992D02*
Y143840D01*
X115370Y147474D02*
X119004Y143840D01*
X115370Y147474D02*
Y151263D01*
X112417Y154216D02*
X115370Y151263D01*
X114083Y146941D02*
X117717Y143307D01*
X114083Y146941D02*
Y150730D01*
X118994Y168207D02*
X122638Y171850D01*
Y174423D01*
X120086Y176976D02*
X122638Y174423D01*
X146405Y106602D02*
X155118Y115315D01*
X126714Y106602D02*
X146405D01*
X124909Y108407D02*
X126714Y106602D01*
X124909Y108407D02*
Y117265D01*
X117717Y124458D02*
X124909Y117265D01*
X117717Y124458D02*
Y143307D01*
X111130Y153683D02*
X114083Y150730D01*
X111130Y153683D02*
Y168217D01*
X112408Y169494D01*
X118313D01*
X120220Y171401D01*
Y174058D01*
X126181Y105315D02*
X155315D01*
X123622Y107874D02*
X126181Y105315D01*
X123622Y107874D02*
Y116732D01*
X112795Y127559D02*
X123622Y116732D01*
X112795Y127559D02*
Y150197D01*
X109843Y153150D02*
X112795Y150197D01*
X109843Y153150D02*
Y170866D01*
X113168Y174192D01*
X117302D01*
D56*
X155315Y105315D02*
D03*
X155118Y115315D02*
D03*
Y125315D02*
D03*
Y135315D02*
D03*
Y145315D02*
D03*
Y155315D02*
D03*
Y165315D02*
D03*
Y175315D02*
D03*
Y185315D02*
D03*
Y195315D02*
D03*
Y215315D02*
D03*
Y225315D02*
D03*
D57*
X111811Y208268D02*
D03*
X149213Y180709D02*
D03*
X137760Y179759D02*
D03*
X134843Y179625D02*
D03*
X143194Y159435D02*
D03*
X143328Y156517D02*
D03*
X120220Y174058D02*
D03*
X123003Y176842D02*
D03*
X117302Y174192D02*
D03*
X120086Y176976D02*
D03*
X122870Y179759D02*
D03*
X125787Y179625D02*
D03*
M02*
