M48
;Layer_Color=6321
;FILE_FORMAT=2:4
INCH,TZ
;TYPE=PLATED
T1F00S00C0.0079
T2F00S00C0.0157
T4F00S00C0.0354
%
T01
X11083Y10984
X12067Y10886
X11870Y11673
X11280Y12362
X12559Y12756
X12854Y13150
X13025Y13471
X12579Y15108
X12287Y15095
X12300Y15387
X12009Y15373
X11083Y14921
X10984Y14331
X11476Y14232
X13484Y15108
X13776Y15095
X13763Y15387
X14054Y15373
X14921Y14134
X13445Y11673
X12854Y11083
X14035Y10886
X14041Y15665
X14333Y15652
X14319Y15943
X14611Y15930
Y17141
X14319Y17127
X14333Y17419
X14041Y17406
X14054Y17698
X13763Y17684
X13776Y17976
X13484Y17963
X13445Y18366
X12953
X13032Y18661
X13051Y19055
X12854Y19252
Y19646
X12657Y19449
X13543Y19547
X13150Y21024
X12854
X13248Y21516
X12953Y21914
X12657Y22598
X14035
X14429Y21713
Y21417
X14134Y21122
X12264Y21417
X11870Y21319
X11280Y21516
X11181Y20827
X12009Y17698
X12300Y17684
X12287Y17976
X12579Y17963
X12022Y17406
X11730Y17419
X11744Y17127
X11452Y17141
X11476Y16398
X11452Y15930
X11744Y15943
X11730Y15652
X12022Y15665
X14626Y18268
X14921Y18071
T02
X13032Y16535
T04
X10532Y10532
X10512Y11531
Y12531
Y13532
Y14532
Y15532
X15512
Y14532
Y13532
Y12531
Y11531
X15532Y10532
X15512Y16531
Y17531
Y18532
Y19532
Y20531
Y21532
Y22531
X10512
Y21532
Y20531
Y19532
Y18532
Y17531
Y16531
M30
