G04*
G04 #@! TF.GenerationSoftware,Altium Limited,CircuitMaker,2.2.1 (2.2.1.6)*
G04*
G04 Layer_Color=20142*
%FSLAX25Y25*%
%MOIN*%
G70*
G04*
G04 #@! TF.SameCoordinates,FB4DA932-24D3-4F87-B050-2CA4388B978A*
G04*
G04*
G04 #@! TF.FilePolarity,Negative*
G04*
G01*
G75*
%ADD33R,0.05524X0.04737*%
G04:AMPARAMS|DCode=34|XSize=31.62mil|YSize=51.31mil|CornerRadius=0mil|HoleSize=0mil|Usage=FLASHONLY|Rotation=315.000|XOffset=0mil|YOffset=0mil|HoleType=Round|Shape=Rectangle|*
%AMROTATEDRECTD34*
4,1,4,-0.02932,-0.00696,0.00696,0.02932,0.02932,0.00696,-0.00696,-0.02932,-0.02932,-0.00696,0.0*
%
%ADD34ROTATEDRECTD34*%

G04:AMPARAMS|DCode=35|XSize=33.59mil|YSize=51.31mil|CornerRadius=0mil|HoleSize=0mil|Usage=FLASHONLY|Rotation=45.000|XOffset=0mil|YOffset=0mil|HoleType=Round|Shape=Rectangle|*
%AMROTATEDRECTD35*
4,1,4,0.00626,-0.03002,-0.03002,0.00626,-0.00626,0.03002,0.03002,-0.00626,0.00626,-0.03002,0.0*
%
%ADD35ROTATEDRECTD35*%

%ADD36R,0.04737X0.03556*%
%ADD37R,0.01981X0.03556*%
%ADD38P,0.20619X4X90.0*%
G04:AMPARAMS|DCode=39|XSize=15.87mil|YSize=41.47mil|CornerRadius=0mil|HoleSize=0mil|Usage=FLASHONLY|Rotation=45.000|XOffset=0mil|YOffset=0mil|HoleType=Round|Shape=Round|*
%AMOVALD39*
21,1,0.02559,0.01587,0.00000,0.00000,135.0*
1,1,0.01587,0.00905,-0.00905*
1,1,0.01587,-0.00905,0.00905*
%
%ADD39OVALD39*%

G04:AMPARAMS|DCode=40|XSize=15.87mil|YSize=41.47mil|CornerRadius=0mil|HoleSize=0mil|Usage=FLASHONLY|Rotation=135.000|XOffset=0mil|YOffset=0mil|HoleType=Round|Shape=Round|*
%AMOVALD40*
21,1,0.02559,0.01587,0.00000,0.00000,225.0*
1,1,0.01587,0.00905,0.00905*
1,1,0.01587,-0.00905,-0.00905*
%
%ADD40OVALD40*%

G04:AMPARAMS|DCode=41|XSize=39.5mil|YSize=39.5mil|CornerRadius=7.15mil|HoleSize=0mil|Usage=FLASHONLY|Rotation=225.000|XOffset=0mil|YOffset=0mil|HoleType=Round|Shape=RoundedRectangle|*
%AMROUNDEDRECTD41*
21,1,0.03950,0.02520,0,0,225.0*
21,1,0.02520,0.03950,0,0,225.0*
1,1,0.01430,-0.01782,0.00000*
1,1,0.01430,0.00000,0.01782*
1,1,0.01430,0.01782,0.00000*
1,1,0.01430,0.00000,-0.01782*
%
%ADD41ROUNDEDRECTD41*%
%ADD42R,0.04343X0.03950*%
%ADD43R,0.04800X0.05200*%
G04:AMPARAMS|DCode=44|XSize=51.31mil|YSize=43.43mil|CornerRadius=0mil|HoleSize=0mil|Usage=FLASHONLY|Rotation=135.000|XOffset=0mil|YOffset=0mil|HoleType=Round|Shape=Rectangle|*
%AMROTATEDRECTD44*
4,1,4,0.03350,-0.00278,0.00278,-0.03350,-0.03350,0.00278,-0.00278,0.03350,0.03350,-0.00278,0.0*
%
%ADD44ROTATEDRECTD44*%

G04:AMPARAMS|DCode=45|XSize=51.31mil|YSize=43.43mil|CornerRadius=0mil|HoleSize=0mil|Usage=FLASHONLY|Rotation=45.000|XOffset=0mil|YOffset=0mil|HoleType=Round|Shape=Rectangle|*
%AMROTATEDRECTD45*
4,1,4,-0.00278,-0.03350,-0.03350,-0.00278,0.00278,0.03350,0.03350,0.00278,-0.00278,-0.03350,0.0*
%
%ADD45ROTATEDRECTD45*%

%ADD46R,0.02768X0.02768*%
%ADD47R,0.03950X0.03950*%
G04:AMPARAMS|DCode=48|XSize=39.5mil|YSize=39.5mil|CornerRadius=7.15mil|HoleSize=0mil|Usage=FLASHONLY|Rotation=315.000|XOffset=0mil|YOffset=0mil|HoleType=Round|Shape=RoundedRectangle|*
%AMROUNDEDRECTD48*
21,1,0.03950,0.02520,0,0,315.0*
21,1,0.02520,0.03950,0,0,315.0*
1,1,0.01430,0.00000,-0.01782*
1,1,0.01430,-0.01782,0.00000*
1,1,0.01430,0.00000,0.01782*
1,1,0.01430,0.01782,0.00000*
%
%ADD48ROUNDEDRECTD48*%
G04:AMPARAMS|DCode=49|XSize=90.68mil|YSize=51.31mil|CornerRadius=25.65mil|HoleSize=0mil|Usage=FLASHONLY|Rotation=270.000|XOffset=0mil|YOffset=0mil|HoleType=Round|Shape=RoundedRectangle|*
%AMROUNDEDRECTD49*
21,1,0.09068,0.00000,0,0,270.0*
21,1,0.03937,0.05131,0,0,270.0*
1,1,0.05131,0.00000,-0.01968*
1,1,0.05131,0.00000,0.01968*
1,1,0.05131,0.00000,0.01968*
1,1,0.05131,0.00000,-0.01968*
%
%ADD49ROUNDEDRECTD49*%
G04:AMPARAMS|DCode=50|XSize=110.36mil|YSize=51.31mil|CornerRadius=25.65mil|HoleSize=0mil|Usage=FLASHONLY|Rotation=270.000|XOffset=0mil|YOffset=0mil|HoleType=Round|Shape=RoundedRectangle|*
%AMROUNDEDRECTD50*
21,1,0.11036,0.00000,0,0,270.0*
21,1,0.05905,0.05131,0,0,270.0*
1,1,0.05131,0.00000,-0.02953*
1,1,0.05131,0.00000,0.02953*
1,1,0.05131,0.00000,0.02953*
1,1,0.05131,0.00000,-0.02953*
%
%ADD50ROUNDEDRECTD50*%
%ADD51C,0.06706*%
%ADD52C,0.02572*%
%ADD53C,0.03950*%
D33*
X115748Y108858D02*
D03*
X144882D02*
D03*
D34*
X126261Y188294D02*
D03*
X123616Y190939D02*
D03*
X120972Y193584D02*
D03*
X114290Y186902D02*
D03*
X119580Y181613D02*
D03*
D35*
X146340Y186902D02*
D03*
X141050Y181613D02*
D03*
X134369Y188294D02*
D03*
X137014Y190939D02*
D03*
X139658Y193584D02*
D03*
D36*
X118110Y205118D02*
D03*
X142520D02*
D03*
D37*
X121457D02*
D03*
X123425D02*
D03*
X137205D02*
D03*
X139173D02*
D03*
X135236D02*
D03*
X133268D02*
D03*
X125394D02*
D03*
X127362D02*
D03*
X129331D02*
D03*
X131299D02*
D03*
X118504Y200000D02*
D03*
X120472D02*
D03*
X122441D02*
D03*
X124409D02*
D03*
X126378D02*
D03*
X128347D02*
D03*
X132283D02*
D03*
X134252D02*
D03*
X136221D02*
D03*
X138189D02*
D03*
X140157D02*
D03*
X142126D02*
D03*
D38*
X130315Y165354D02*
D03*
D39*
X118275Y167651D02*
D03*
X119667Y169043D02*
D03*
X121058Y170435D02*
D03*
X122450Y171827D02*
D03*
X123842Y173219D02*
D03*
X125234Y174611D02*
D03*
X126626Y176003D02*
D03*
X128018Y177395D02*
D03*
X142355Y163058D02*
D03*
X140963Y161666D02*
D03*
X139571Y160274D02*
D03*
X138179Y158882D02*
D03*
X136787Y157490D02*
D03*
X135396Y156098D02*
D03*
X134004Y154706D02*
D03*
X132612Y153314D02*
D03*
D40*
Y177395D02*
D03*
X134004Y176003D02*
D03*
X135396Y174611D02*
D03*
X136787Y173219D02*
D03*
X138179Y171827D02*
D03*
X139571Y170435D02*
D03*
X140963Y169043D02*
D03*
X142355Y167651D02*
D03*
X128018Y153314D02*
D03*
X126626Y154706D02*
D03*
X125234Y156098D02*
D03*
X123842Y157490D02*
D03*
X122450Y158882D02*
D03*
X121058Y160274D02*
D03*
X119667Y161666D02*
D03*
X118275Y163058D02*
D03*
D41*
X111552Y131755D02*
D03*
X116007Y127301D02*
D03*
D42*
X114764Y114272D02*
D03*
Y119193D02*
D03*
D43*
X146260Y121116D02*
D03*
Y114370D02*
D03*
D44*
X140215Y131267D02*
D03*
X145504Y136556D02*
D03*
X140494Y141568D02*
D03*
X135204Y136278D02*
D03*
D45*
X119546Y141568D02*
D03*
X124835Y136278D02*
D03*
X119824Y131267D02*
D03*
X114535Y136556D02*
D03*
D46*
X125394Y119882D02*
D03*
Y123425D02*
D03*
X121850D02*
D03*
Y119882D02*
D03*
D47*
X138387Y121655D02*
D03*
X132482D02*
D03*
D48*
X144033Y127301D02*
D03*
X148487Y131755D02*
D03*
D49*
X147323Y201614D02*
D03*
X113307D02*
D03*
D50*
Y222716D02*
D03*
X147323D02*
D03*
D51*
X105118Y115315D02*
D03*
X105315Y105315D02*
D03*
X155315D02*
D03*
X155118Y115315D02*
D03*
Y125315D02*
D03*
Y135315D02*
D03*
Y145315D02*
D03*
Y155315D02*
D03*
Y165315D02*
D03*
Y175315D02*
D03*
Y185315D02*
D03*
Y195315D02*
D03*
Y205315D02*
D03*
Y215315D02*
D03*
Y225315D02*
D03*
X105118D02*
D03*
Y215315D02*
D03*
Y205315D02*
D03*
Y195315D02*
D03*
Y185315D02*
D03*
Y175315D02*
D03*
Y165315D02*
D03*
Y155315D02*
D03*
Y145315D02*
D03*
Y135315D02*
D03*
Y125315D02*
D03*
D52*
X120669Y108858D02*
D03*
X118701Y116732D02*
D03*
X112795Y123622D02*
D03*
X128543Y110827D02*
D03*
X111811Y208268D02*
D03*
X149213Y180709D02*
D03*
X128543Y131496D02*
D03*
X143328Y174192D02*
D03*
X146260Y182677D02*
D03*
X134449Y116732D02*
D03*
X110827Y109843D02*
D03*
X109843Y143307D02*
D03*
X114764Y163976D02*
D03*
X131496Y210236D02*
D03*
X128543Y196457D02*
D03*
Y192520D02*
D03*
X130315Y186614D02*
D03*
X129527Y183661D02*
D03*
X141339Y211221D02*
D03*
X144291Y214173D02*
D03*
X143194Y171274D02*
D03*
X134449Y183661D02*
D03*
X144291Y217126D02*
D03*
X114764Y142323D02*
D03*
X110827Y149213D02*
D03*
X125591Y127559D02*
D03*
X118701Y213189D02*
D03*
X112795Y215158D02*
D03*
X149213Y141339D02*
D03*
X140354Y108858D02*
D03*
X130253Y134707D02*
D03*
X126575Y194488D02*
D03*
X130512Y190551D02*
D03*
X135433Y195472D02*
D03*
X137760Y179759D02*
D03*
X134843Y179625D02*
D03*
X122638Y214173D02*
D03*
X129528Y219142D02*
D03*
X140354Y225984D02*
D03*
X126575D02*
D03*
X132480Y215158D02*
D03*
X117302Y156517D02*
D03*
X120220Y156651D02*
D03*
X122870Y150949D02*
D03*
X137760D02*
D03*
X140410Y156651D02*
D03*
X143194Y159435D02*
D03*
X137626Y153867D02*
D03*
X140544Y153733D02*
D03*
X117436Y159435D02*
D03*
X123003Y153867D02*
D03*
X125787Y151083D02*
D03*
X120086Y153733D02*
D03*
X114518Y159301D02*
D03*
X134843Y151083D02*
D03*
X143328Y156517D02*
D03*
X146112Y159301D02*
D03*
X137626Y176842D02*
D03*
X140410Y174058D02*
D03*
X140544Y176976D02*
D03*
X146112Y171408D02*
D03*
X120220Y174058D02*
D03*
X123003Y176842D02*
D03*
X128543Y210236D02*
D03*
X114518Y171408D02*
D03*
X117302Y174192D02*
D03*
X120086Y176976D02*
D03*
X117436Y171274D02*
D03*
X122870Y179759D02*
D03*
X125787Y179625D02*
D03*
D53*
X130315Y165354D02*
D03*
M02*
