G04*
G04 #@! TF.GenerationSoftware,Altium Limited,CircuitMaker,2.2.1 (2.2.1.6)*
G04*
G04 Layer_Physical_Order=6*
G04 Layer_Color=11436288*
%FSLAX25Y25*%
%MOIN*%
G70*
G04*
G04 #@! TF.SameCoordinates,FB4DA932-24D3-4F87-B050-2CA4388B978A*
G04*
G04*
G04 #@! TF.FilePolarity,Positive*
G04*
G01*
G75*
%ADD12C,0.00787*%
%ADD26R,0.03543X0.03150*%
G04:AMPARAMS|DCode=32|XSize=31.5mil|YSize=31.5mil|CornerRadius=3.15mil|HoleSize=0mil|Usage=FLASHONLY|Rotation=315.000|XOffset=0mil|YOffset=0mil|HoleType=Round|Shape=RoundedRectangle|*
%AMROUNDEDRECTD32*
21,1,0.03150,0.02520,0,0,315.0*
21,1,0.02520,0.03150,0,0,315.0*
1,1,0.00630,0.00000,-0.01782*
1,1,0.00630,-0.01782,0.00000*
1,1,0.00630,0.00000,0.01782*
1,1,0.00630,0.01782,0.00000*
%
%ADD32ROUNDEDRECTD32*%
G04:AMPARAMS|DCode=54|XSize=82.68mil|YSize=43.31mil|CornerRadius=21.65mil|HoleSize=0mil|Usage=FLASHONLY|Rotation=270.000|XOffset=0mil|YOffset=0mil|HoleType=Round|Shape=RoundedRectangle|*
%AMROUNDEDRECTD54*
21,1,0.08268,0.00000,0,0,270.0*
21,1,0.03937,0.04331,0,0,270.0*
1,1,0.04331,0.00000,-0.01968*
1,1,0.04331,0.00000,0.01968*
1,1,0.04331,0.00000,0.01968*
1,1,0.04331,0.00000,-0.01968*
%
%ADD54ROUNDEDRECTD54*%
G04:AMPARAMS|DCode=55|XSize=102.36mil|YSize=43.31mil|CornerRadius=21.65mil|HoleSize=0mil|Usage=FLASHONLY|Rotation=270.000|XOffset=0mil|YOffset=0mil|HoleType=Round|Shape=RoundedRectangle|*
%AMROUNDEDRECTD55*
21,1,0.10236,0.00000,0,0,270.0*
21,1,0.05905,0.04331,0,0,270.0*
1,1,0.04331,0.00000,-0.02953*
1,1,0.04331,0.00000,0.02953*
1,1,0.04331,0.00000,0.02953*
1,1,0.04331,0.00000,-0.02953*
%
%ADD55ROUNDEDRECTD55*%
%ADD56C,0.05905*%
%ADD57C,0.01772*%
%ADD58C,0.03150*%
G04:AMPARAMS|DCode=66|XSize=37.4mil|YSize=39.37mil|CornerRadius=0mil|HoleSize=0mil|Usage=FLASHONLY|Rotation=135.000|XOffset=0mil|YOffset=0mil|HoleType=Round|Shape=Rectangle|*
%AMROTATEDRECTD66*
4,1,4,0.02714,0.00070,-0.00070,-0.02714,-0.02714,-0.00070,0.00070,0.02714,0.02714,0.00070,0.0*
%
%ADD66ROTATEDRECTD66*%

%ADD67R,0.03543X0.03543*%
%ADD68R,0.03543X0.03347*%
G04:AMPARAMS|DCode=69|XSize=31.5mil|YSize=31.5mil|CornerRadius=3.15mil|HoleSize=0mil|Usage=FLASHONLY|Rotation=0.000|XOffset=0mil|YOffset=0mil|HoleType=Round|Shape=RoundedRectangle|*
%AMROUNDEDRECTD69*
21,1,0.03150,0.02520,0,0,0.0*
21,1,0.02520,0.03150,0,0,0.0*
1,1,0.00630,0.01260,-0.01260*
1,1,0.00630,-0.01260,-0.01260*
1,1,0.00630,-0.01260,0.01260*
1,1,0.00630,0.01260,0.01260*
%
%ADD69ROUNDEDRECTD69*%
G04:AMPARAMS|DCode=70|XSize=35.43mil|YSize=33.47mil|CornerRadius=0mil|HoleSize=0mil|Usage=FLASHONLY|Rotation=315.000|XOffset=0mil|YOffset=0mil|HoleType=Round|Shape=Rectangle|*
%AMROTATEDRECTD70*
4,1,4,-0.02436,0.00070,-0.00070,0.02436,0.02436,-0.00070,0.00070,-0.02436,-0.02436,0.00070,0.0*
%
%ADD70ROTATEDRECTD70*%

G04:AMPARAMS|DCode=71|XSize=35.43mil|YSize=31.5mil|CornerRadius=0mil|HoleSize=0mil|Usage=FLASHONLY|Rotation=225.000|XOffset=0mil|YOffset=0mil|HoleType=Round|Shape=Rectangle|*
%AMROTATEDRECTD71*
4,1,4,0.00139,0.02366,0.02366,0.00139,-0.00139,-0.02366,-0.02366,-0.00139,0.00139,0.02366,0.0*
%
%ADD71ROTATEDRECTD71*%

G04:AMPARAMS|DCode=72|XSize=35.43mil|YSize=31.5mil|CornerRadius=0mil|HoleSize=0mil|Usage=FLASHONLY|Rotation=315.000|XOffset=0mil|YOffset=0mil|HoleType=Round|Shape=Rectangle|*
%AMROTATEDRECTD72*
4,1,4,-0.02366,0.00139,-0.00139,0.02366,0.02366,-0.00139,0.00139,-0.02366,-0.02366,0.00139,0.0*
%
%ADD72ROTATEDRECTD72*%

G04:AMPARAMS|DCode=73|XSize=39.37mil|YSize=41.34mil|CornerRadius=0mil|HoleSize=0mil|Usage=FLASHONLY|Rotation=135.000|XOffset=0mil|YOffset=0mil|HoleType=Round|Shape=Rectangle|*
%AMROTATEDRECTD73*
4,1,4,0.02854,0.00070,-0.00070,-0.02854,-0.02854,-0.00070,0.00070,0.02854,0.02854,0.00070,0.0*
%
%ADD73ROTATEDRECTD73*%

G04:AMPARAMS|DCode=74|XSize=39.37mil|YSize=41.34mil|CornerRadius=0mil|HoleSize=0mil|Usage=FLASHONLY|Rotation=45.000|XOffset=0mil|YOffset=0mil|HoleType=Round|Shape=Rectangle|*
%AMROTATEDRECTD74*
4,1,4,0.00070,-0.02854,-0.02854,0.00070,-0.00070,0.02854,0.02854,-0.00070,0.00070,-0.02854,0.0*
%
%ADD74ROTATEDRECTD74*%

%ADD75R,0.03347X0.03543*%
%ADD76R,0.03937X0.04134*%
G04:AMPARAMS|DCode=77|XSize=35mil|YSize=35mil|CornerRadius=4.38mil|HoleSize=0mil|Usage=FLASHONLY|Rotation=270.000|XOffset=0mil|YOffset=0mil|HoleType=Round|Shape=RoundedRectangle|*
%AMROUNDEDRECTD77*
21,1,0.03500,0.02625,0,0,270.0*
21,1,0.02625,0.03500,0,0,270.0*
1,1,0.00875,-0.01312,-0.01312*
1,1,0.00875,-0.01312,0.01312*
1,1,0.00875,0.01312,0.01312*
1,1,0.00875,0.01312,-0.01312*
%
%ADD77ROUNDEDRECTD77*%
G36*
X157841Y230557D02*
X158558Y230261D01*
X159203Y229830D01*
X159751Y229281D01*
X160182Y228637D01*
X160479Y227920D01*
X160630Y227159D01*
Y226772D01*
Y103937D01*
Y103549D01*
X160479Y102789D01*
X160182Y102072D01*
X159751Y101427D01*
X159203Y100879D01*
X158558Y100448D01*
X157841Y100151D01*
X157081Y100000D01*
X103549D01*
X102789Y100151D01*
X102072Y100448D01*
X101427Y100879D01*
X100879Y101427D01*
X100448Y102072D01*
X100151Y102789D01*
X100000Y103549D01*
Y103937D01*
Y226772D01*
Y227159D01*
X100151Y227920D01*
X100448Y228637D01*
X100879Y229281D01*
X101427Y229830D01*
X102072Y230261D01*
X102789Y230557D01*
X103549Y230709D01*
X157081D01*
X157841Y230557D01*
D02*
G37*
%LPC*%
G36*
X155573Y228768D02*
X154664D01*
X153785Y228532D01*
X152998Y228078D01*
X152355Y227435D01*
X151901Y226648D01*
X151665Y225769D01*
Y224860D01*
X151901Y223982D01*
X152355Y223195D01*
X152998Y222552D01*
X153785Y222097D01*
X154664Y221862D01*
X155573D01*
X156451Y222097D01*
X157238Y222552D01*
X157881Y223195D01*
X158336Y223982D01*
X158571Y224860D01*
Y225769D01*
X158336Y226648D01*
X157881Y227435D01*
X157238Y228078D01*
X156451Y228532D01*
X155573Y228768D01*
D02*
G37*
G36*
X105573D02*
X104664D01*
X103785Y228532D01*
X102998Y228078D01*
X102355Y227435D01*
X101901Y226648D01*
X101665Y225769D01*
Y224860D01*
X101901Y223982D01*
X102355Y223195D01*
X102998Y222552D01*
X103785Y222097D01*
X104664Y221862D01*
X105573D01*
X106451Y222097D01*
X107238Y222552D01*
X107881Y223195D01*
X108336Y223982D01*
X108571Y224860D01*
Y225769D01*
X108336Y226648D01*
X107881Y227435D01*
X107238Y228078D01*
X106451Y228532D01*
X105573Y228768D01*
D02*
G37*
G36*
X147323Y228358D02*
X146627Y228266D01*
X145979Y227997D01*
X145422Y227570D01*
X144995Y227013D01*
X144726Y226365D01*
X144634Y225669D01*
Y219810D01*
X144533Y219726D01*
X144154Y219584D01*
X142623Y221115D01*
Y223407D01*
X142550Y223773D01*
X142343Y224083D01*
X142033Y224290D01*
X141667Y224363D01*
X141346D01*
X141231Y224612D01*
X141193Y224863D01*
X141529Y225199D01*
X141576Y225313D01*
X141616Y225340D01*
X141814Y225636D01*
X141883Y225984D01*
X141814Y226333D01*
X141616Y226629D01*
X141576Y226655D01*
X141529Y226769D01*
X141139Y227159D01*
X140630Y227370D01*
X140079D01*
X139569Y227159D01*
X139306Y226895D01*
X136917D01*
Y227567D01*
X131980D01*
Y222433D01*
X136917D01*
Y225073D01*
X139103D01*
X139290Y224863D01*
X139066Y224363D01*
X139042D01*
X138676Y224290D01*
X138366Y224083D01*
X138159Y223773D01*
X138086Y223407D01*
Y220782D01*
X138159Y220416D01*
X138366Y220106D01*
X138676Y219899D01*
X139042Y219826D01*
X141334D01*
X142887Y218273D01*
X142861Y218207D01*
X142456Y218110D01*
X142289Y218119D01*
X142033Y218290D01*
X141667Y218363D01*
X139042D01*
X138676Y218290D01*
X138366Y218083D01*
X138159Y217773D01*
X138086Y217407D01*
Y217006D01*
X136917D01*
Y221661D01*
X131980D01*
Y216780D01*
X131771Y216367D01*
X131695Y216332D01*
X131306Y215943D01*
X131095Y215433D01*
Y214882D01*
X131306Y214372D01*
X131695Y213983D01*
X132205Y213772D01*
X132402D01*
X132811Y213520D01*
X132857Y213310D01*
Y211543D01*
X132357Y211336D01*
X132281Y211411D01*
X131772Y211622D01*
X131220D01*
X130711Y211411D01*
X130321Y211021D01*
X130290Y210946D01*
X129749D01*
X129718Y211021D01*
X129328Y211411D01*
X128819Y211622D01*
X128446D01*
X127486Y212582D01*
Y213826D01*
X127887D01*
X128253Y213899D01*
X128563Y214106D01*
X128770Y214416D01*
X128843Y214782D01*
Y217407D01*
X129242Y217747D01*
X129284Y217756D01*
X129803D01*
X130313Y217967D01*
X130702Y218357D01*
X130913Y218866D01*
Y219417D01*
X130702Y219927D01*
X130313Y220317D01*
X129803Y220528D01*
X129430D01*
X128843Y221115D01*
Y223407D01*
X128770Y223773D01*
X128563Y224083D01*
X128253Y224290D01*
X127887Y224363D01*
X127567D01*
X127451Y224612D01*
X127413Y224863D01*
X127750Y225199D01*
X127961Y225709D01*
Y226260D01*
X127750Y226769D01*
X127360Y227159D01*
X126850Y227370D01*
X126299D01*
X125790Y227159D01*
X125526Y226895D01*
X123138D01*
Y227567D01*
X118201D01*
Y222433D01*
X123138D01*
Y225073D01*
X125324D01*
X125511Y224863D01*
X125287Y224363D01*
X125262D01*
X124897Y224290D01*
X124586Y224083D01*
X124379Y223773D01*
X124306Y223407D01*
Y220782D01*
X124379Y220416D01*
X124586Y220106D01*
X124897Y219899D01*
X125262Y219826D01*
X127555D01*
X128142Y219239D01*
Y218866D01*
X128162Y218818D01*
X127995Y218542D01*
X127809Y218363D01*
X125262D01*
X124897Y218290D01*
X124586Y218083D01*
X124379Y217773D01*
X124306Y217407D01*
Y215073D01*
X123842Y214965D01*
X123806Y214964D01*
X123423Y215348D01*
X122914Y215559D01*
X122362D01*
X121853Y215348D01*
X121463Y214958D01*
X121252Y214449D01*
Y213898D01*
X121463Y213388D01*
X121548Y213303D01*
X121341Y212803D01*
X120549D01*
X120152Y212898D01*
X120087Y213269D01*
Y213465D01*
X119876Y213974D01*
X119486Y214364D01*
X118976Y214575D01*
X118425D01*
X118023Y214408D01*
X117916Y214364D01*
X117594Y214731D01*
X117674Y214811D01*
X119391Y216528D01*
X123138D01*
Y221661D01*
X118201D01*
Y217915D01*
X116355Y216069D01*
X113844D01*
X113580Y216332D01*
X113071Y216543D01*
X112520D01*
X112010Y216332D01*
X111620Y215943D01*
X111409Y215433D01*
Y214882D01*
X111620Y214372D01*
X112010Y213983D01*
X112520Y213772D01*
X113071D01*
X113580Y213983D01*
X113844Y214246D01*
X116732D01*
X117081Y214316D01*
X117321Y214476D01*
X117639Y214087D01*
X117526Y213974D01*
X117315Y213465D01*
Y212913D01*
X117526Y212404D01*
X117790Y212140D01*
Y200787D01*
X117859Y200439D01*
X117905Y200369D01*
Y198525D01*
X117072Y197692D01*
X116875Y197396D01*
X116805Y197047D01*
Y196268D01*
X115445D01*
Y196268D01*
X115067Y196071D01*
X110754D01*
Y197774D01*
X111254Y197943D01*
X111406Y197745D01*
X111963Y197318D01*
X112611Y197049D01*
X113307Y196957D01*
X114003Y197049D01*
X114651Y197318D01*
X115208Y197745D01*
X115635Y198301D01*
X115904Y198950D01*
X115995Y199646D01*
Y203583D01*
X115904Y204278D01*
X115635Y204927D01*
X115208Y205484D01*
X114651Y205911D01*
X114003Y206179D01*
X113307Y206271D01*
X112611Y206179D01*
X111963Y205911D01*
X111406Y205484D01*
X111254Y205285D01*
X110754Y205455D01*
Y205922D01*
X111714Y206882D01*
X112087D01*
X112596Y207093D01*
X112986Y207483D01*
X113197Y207992D01*
Y208543D01*
X112986Y209053D01*
X112596Y209443D01*
X112087Y209653D01*
X111535D01*
X111026Y209443D01*
X110636Y209053D01*
X110425Y208543D01*
Y208171D01*
X109198Y206943D01*
X109001Y206648D01*
X108931Y206299D01*
X108431Y206290D01*
X108336Y206648D01*
X107881Y207435D01*
X107238Y208078D01*
X106451Y208532D01*
X105573Y208768D01*
X104664D01*
X103785Y208532D01*
X102998Y208078D01*
X102355Y207435D01*
X101901Y206648D01*
X101665Y205769D01*
Y204860D01*
X101901Y203982D01*
X102355Y203195D01*
X102998Y202552D01*
X103785Y202098D01*
X104664Y201862D01*
X105573D01*
X106451Y202098D01*
X107238Y202552D01*
X107881Y203195D01*
X108336Y203982D01*
X108431Y204340D01*
X108931Y204274D01*
Y196356D01*
X108431Y196290D01*
X108336Y196648D01*
X107881Y197435D01*
X107238Y198078D01*
X106451Y198532D01*
X105573Y198768D01*
X104664D01*
X103785Y198532D01*
X102998Y198078D01*
X102355Y197435D01*
X101901Y196648D01*
X101665Y195770D01*
Y194860D01*
X101901Y193982D01*
X102355Y193195D01*
X102998Y192552D01*
X103785Y192097D01*
X104664Y191862D01*
X105573D01*
X106451Y192097D01*
X107238Y192552D01*
X107881Y193195D01*
X108336Y193982D01*
X108431Y194340D01*
X108931Y194274D01*
Y186614D01*
X109001Y186266D01*
X109198Y185970D01*
X109916Y185252D01*
Y182070D01*
X108214Y180369D01*
X108016Y180073D01*
X107947Y179724D01*
Y178076D01*
X107447Y177869D01*
X107238Y178078D01*
X106451Y178532D01*
X105573Y178768D01*
X104664D01*
X103785Y178532D01*
X102998Y178078D01*
X102355Y177435D01*
X101901Y176648D01*
X101665Y175769D01*
Y174860D01*
X101901Y173982D01*
X102355Y173195D01*
X102998Y172552D01*
X103785Y172098D01*
X104664Y171862D01*
X105573D01*
X106451Y172098D01*
X107238Y172552D01*
X107881Y173195D01*
X108336Y173982D01*
X108571Y174860D01*
Y175769D01*
X108469Y176149D01*
X108917Y176408D01*
X110900Y174426D01*
Y158071D01*
X110969Y157722D01*
X111167Y157427D01*
X112721Y155873D01*
X112689Y155328D01*
X112675Y155302D01*
X110182Y152810D01*
X109985Y152514D01*
X109916Y152165D01*
Y150261D01*
X109652Y149998D01*
X109441Y149488D01*
Y148937D01*
X109652Y148428D01*
X110042Y148038D01*
X110551Y147827D01*
X111102D01*
X111612Y148038D01*
X112002Y148428D01*
X112213Y148937D01*
Y149488D01*
X112052Y149876D01*
X112066Y149959D01*
X112601Y150128D01*
X112606Y150126D01*
X112889Y149843D01*
X112868Y149740D01*
Y145653D01*
X111485Y144270D01*
X111417Y144244D01*
X110811Y144299D01*
X110627Y144482D01*
X110118Y144693D01*
X109567D01*
X109057Y144482D01*
X108961Y144386D01*
X108513Y144644D01*
X108571Y144860D01*
Y145770D01*
X108336Y146648D01*
X107881Y147435D01*
X107238Y148078D01*
X106451Y148532D01*
X105573Y148768D01*
X104664D01*
X103785Y148532D01*
X102998Y148078D01*
X102355Y147435D01*
X101901Y146648D01*
X101665Y145770D01*
Y144860D01*
X101901Y143982D01*
X102355Y143195D01*
X102998Y142552D01*
X103785Y142097D01*
X104664Y141862D01*
X105573D01*
X106451Y142097D01*
X107238Y142552D01*
X107881Y143195D01*
X107957Y143326D01*
X108457Y143192D01*
Y143031D01*
X108668Y142522D01*
X108931Y142259D01*
Y138386D01*
X109001Y138037D01*
X109198Y137741D01*
X109916Y137024D01*
Y110891D01*
X109652Y110627D01*
X109441Y110118D01*
Y109567D01*
X109652Y109057D01*
X110042Y108668D01*
X110551Y108457D01*
X111102D01*
X111612Y108668D01*
X112002Y109057D01*
X112213Y109567D01*
Y110118D01*
X112002Y110627D01*
X111738Y110891D01*
Y122066D01*
X112238Y122353D01*
X112520Y122236D01*
X113071D01*
X113580Y122447D01*
X113970Y122837D01*
X114181Y123346D01*
Y123898D01*
X113970Y124407D01*
X113580Y124797D01*
X113071Y125008D01*
X112520D01*
X112238Y124891D01*
X111738Y125178D01*
Y137402D01*
X111669Y137750D01*
X111471Y138046D01*
X110754Y138763D01*
Y139430D01*
X110915Y139540D01*
X111254Y139623D01*
X119758Y131119D01*
Y118288D01*
X119258Y118001D01*
X118976Y118118D01*
X118425D01*
X117916Y117907D01*
X117526Y117517D01*
X117315Y117008D01*
Y116457D01*
X117526Y115947D01*
X117916Y115557D01*
X118425Y115347D01*
X118976D01*
X119258Y115463D01*
X119758Y115176D01*
Y109907D01*
X119494Y109643D01*
X119283Y109134D01*
Y108583D01*
X119494Y108073D01*
X119884Y107683D01*
X120394Y107473D01*
X120945D01*
X121454Y107683D01*
X121844Y108073D01*
X122055Y108583D01*
Y108955D01*
X128203Y115104D01*
X128401Y115399D01*
X128470Y115748D01*
Y127037D01*
X128727Y127236D01*
X129224Y127012D01*
Y123319D01*
X130585D01*
Y119685D01*
X130654Y119336D01*
X130852Y119041D01*
X133063Y116829D01*
Y116457D01*
X133274Y115947D01*
X133664Y115557D01*
X134173Y115347D01*
X134724D01*
X135234Y115557D01*
X135497Y115821D01*
X139370D01*
X139719Y115890D01*
X140014Y116088D01*
X151825Y127899D01*
X152023Y128195D01*
X152092Y128543D01*
Y132751D01*
X152592Y132958D01*
X152998Y132552D01*
X153785Y132097D01*
X154664Y131862D01*
X155573D01*
X156451Y132097D01*
X157238Y132552D01*
X157881Y133195D01*
X158336Y133982D01*
X158571Y134860D01*
Y135769D01*
X158336Y136648D01*
X157881Y137435D01*
X157238Y138078D01*
X156451Y138532D01*
X155573Y138768D01*
X154664D01*
X153785Y138532D01*
X152998Y138078D01*
X152592Y137672D01*
X152092Y137879D01*
Y142751D01*
X152592Y142958D01*
X152998Y142552D01*
X153785Y142097D01*
X154664Y141862D01*
X155573D01*
X156451Y142097D01*
X157238Y142552D01*
X157881Y143195D01*
X158336Y143982D01*
X158571Y144860D01*
Y145770D01*
X158336Y146648D01*
X157881Y147435D01*
X157238Y148078D01*
X156451Y148532D01*
X155573Y148768D01*
X154664D01*
X153785Y148532D01*
X152998Y148078D01*
X152592Y147672D01*
X152092Y147879D01*
Y152751D01*
X152592Y152958D01*
X152998Y152552D01*
X153785Y152097D01*
X154664Y151862D01*
X155573D01*
X156451Y152097D01*
X157238Y152552D01*
X157881Y153195D01*
X158336Y153982D01*
X158571Y154860D01*
Y155770D01*
X158336Y156648D01*
X157881Y157435D01*
X157238Y158078D01*
X156451Y158532D01*
X155573Y158768D01*
X154664D01*
X153785Y158532D01*
X152998Y158078D01*
X152592Y157672D01*
X152092Y157879D01*
Y162751D01*
X152592Y162958D01*
X152998Y162552D01*
X153785Y162098D01*
X154664Y161862D01*
X155573D01*
X156451Y162098D01*
X157238Y162552D01*
X157881Y163195D01*
X158336Y163982D01*
X158571Y164860D01*
Y165770D01*
X158336Y166648D01*
X157881Y167435D01*
X157238Y168078D01*
X156451Y168532D01*
X155573Y168768D01*
X154664D01*
X153785Y168532D01*
X152998Y168078D01*
X152592Y167672D01*
X152092Y167879D01*
Y172751D01*
X152592Y172958D01*
X152998Y172552D01*
X153785Y172098D01*
X154664Y171862D01*
X155573D01*
X156451Y172098D01*
X157238Y172552D01*
X157881Y173195D01*
X158336Y173982D01*
X158571Y174860D01*
Y175769D01*
X158336Y176648D01*
X157881Y177435D01*
X157238Y178078D01*
X156451Y178532D01*
X155573Y178768D01*
X154664D01*
X153785Y178532D01*
X152998Y178078D01*
X152592Y177672D01*
X152092Y177879D01*
Y182751D01*
X152592Y182958D01*
X152998Y182552D01*
X153785Y182097D01*
X154664Y181862D01*
X155573D01*
X156451Y182097D01*
X157238Y182552D01*
X157881Y183195D01*
X158336Y183982D01*
X158571Y184860D01*
Y185769D01*
X158336Y186648D01*
X157881Y187435D01*
X157238Y188078D01*
X156451Y188532D01*
X155573Y188768D01*
X154664D01*
X153785Y188532D01*
X152998Y188078D01*
X152592Y187672D01*
X152092Y187879D01*
Y192751D01*
X152592Y192958D01*
X152998Y192552D01*
X153785Y192097D01*
X154664Y191862D01*
X155573D01*
X156451Y192097D01*
X157238Y192552D01*
X157881Y193195D01*
X158336Y193982D01*
X158571Y194860D01*
Y195770D01*
X158336Y196648D01*
X157881Y197435D01*
X157238Y198078D01*
X156451Y198532D01*
X155573Y198768D01*
X154664D01*
X154445Y198709D01*
X154186Y199158D01*
X155762Y200734D01*
X155960Y201029D01*
X156029Y201378D01*
Y201985D01*
X156451Y202098D01*
X157238Y202552D01*
X157881Y203195D01*
X158336Y203982D01*
X158571Y204860D01*
Y205769D01*
X158336Y206648D01*
X157881Y207435D01*
X157238Y208078D01*
X156451Y208532D01*
X155573Y208768D01*
X154664D01*
X153785Y208532D01*
X152998Y208078D01*
X152355Y207435D01*
X151901Y206648D01*
X151665Y205769D01*
Y204860D01*
X151901Y203982D01*
X152355Y203195D01*
X152998Y202552D01*
X153785Y202098D01*
X153830Y202086D01*
X153979Y201528D01*
X150537Y198085D01*
X150339Y197790D01*
X150270Y197441D01*
Y182264D01*
X149770Y181978D01*
X149488Y182095D01*
X148937D01*
X148428Y181884D01*
X148038Y181494D01*
X147827Y180984D01*
Y180433D01*
X148038Y179924D01*
X148428Y179534D01*
X148937Y179323D01*
X148983D01*
Y178247D01*
X148483Y178040D01*
X145665Y180857D01*
X145631Y180891D01*
X145631Y180891D01*
X145623Y180901D01*
X145763Y181110D01*
Y181110D01*
X145768Y181117D01*
X145768D01*
X146215Y181291D01*
X146536D01*
X147045Y181502D01*
X147435Y181892D01*
X147646Y182402D01*
Y182774D01*
X147888Y183017D01*
X148086Y183313D01*
X148155Y183661D01*
Y184327D01*
X148504D01*
X148822Y184390D01*
X149091Y184570D01*
X149272Y184839D01*
X149335Y185158D01*
Y187677D01*
X149272Y187995D01*
X149091Y188265D01*
X148822Y188445D01*
X148504Y188508D01*
X145984D01*
X145666Y188445D01*
X145397Y188265D01*
X144811Y188205D01*
X144595Y188389D01*
Y191150D01*
X140051D01*
X139954Y191225D01*
Y191461D01*
X140423Y191921D01*
X144595D01*
Y193085D01*
X145153D01*
Y191457D01*
X145217Y191139D01*
X145397Y190869D01*
X145666Y190689D01*
X145984Y190626D01*
X148504D01*
X148822Y190689D01*
X149091Y190869D01*
X149272Y191139D01*
X149335Y191457D01*
Y193976D01*
X149272Y194294D01*
X149091Y194564D01*
X148822Y194744D01*
X148504Y194807D01*
X146359D01*
X146313Y194838D01*
X145965Y194907D01*
X144595D01*
Y196268D01*
X142840D01*
Y197138D01*
X144102D01*
Y201681D01*
X140336D01*
X139870Y201764D01*
X139870Y202134D01*
Y206898D01*
X134959D01*
X134731Y207283D01*
X134959Y207669D01*
X139870D01*
Y210022D01*
X140370Y210229D01*
X140554Y210046D01*
X141063Y209835D01*
X141614D01*
X142124Y210046D01*
X142513Y210436D01*
X142724Y210945D01*
Y211496D01*
X142608Y211778D01*
X142894Y212278D01*
X143307D01*
X143656Y212347D01*
X143951Y212545D01*
X144194Y212787D01*
X144567D01*
X145076Y212998D01*
X145466Y213388D01*
X145677Y213898D01*
Y214449D01*
X145466Y214958D01*
X145076Y215348D01*
X145002Y215379D01*
Y215920D01*
X145076Y215951D01*
X145466Y216341D01*
X145677Y216850D01*
Y217038D01*
X145736Y217115D01*
X146177Y217353D01*
X146627Y217167D01*
X147323Y217075D01*
X148019Y217167D01*
X148667Y217436D01*
X149224Y217863D01*
X149651Y218420D01*
X149920Y219068D01*
X150011Y219764D01*
Y225669D01*
X149920Y226365D01*
X149651Y227013D01*
X149224Y227570D01*
X148667Y227997D01*
X148019Y228266D01*
X147323Y228358D01*
D02*
G37*
G36*
X113307D02*
X112611Y228266D01*
X111963Y227997D01*
X111406Y227570D01*
X110979Y227013D01*
X110710Y226365D01*
X110619Y225669D01*
Y219764D01*
X110710Y219068D01*
X110979Y218420D01*
X111406Y217863D01*
X111963Y217436D01*
X112611Y217167D01*
X113307Y217075D01*
X114003Y217167D01*
X114651Y217436D01*
X115208Y217863D01*
X115635Y218420D01*
X115904Y219068D01*
X115995Y219764D01*
Y225669D01*
X115904Y226365D01*
X115635Y227013D01*
X115208Y227570D01*
X114651Y227997D01*
X114003Y228266D01*
X113307Y228358D01*
D02*
G37*
G36*
X155573Y218768D02*
X154664D01*
X153785Y218532D01*
X152998Y218078D01*
X152355Y217435D01*
X151901Y216648D01*
X151665Y215770D01*
Y214860D01*
X151901Y213982D01*
X152355Y213195D01*
X152998Y212552D01*
X153785Y212098D01*
X154664Y211862D01*
X155573D01*
X156451Y212098D01*
X157238Y212552D01*
X157881Y213195D01*
X158336Y213982D01*
X158571Y214860D01*
Y215770D01*
X158336Y216648D01*
X157881Y217435D01*
X157238Y218078D01*
X156451Y218532D01*
X155573Y218768D01*
D02*
G37*
G36*
X105573D02*
X104664D01*
X103785Y218532D01*
X102998Y218078D01*
X102355Y217435D01*
X101901Y216648D01*
X101665Y215770D01*
Y214860D01*
X101901Y213982D01*
X102355Y213195D01*
X102998Y212552D01*
X103785Y212098D01*
X104664Y211862D01*
X105573D01*
X106451Y212098D01*
X107238Y212552D01*
X107881Y213195D01*
X108336Y213982D01*
X108571Y214860D01*
Y215770D01*
X108336Y216648D01*
X107881Y217435D01*
X107238Y218078D01*
X106451Y218532D01*
X105573Y218768D01*
D02*
G37*
G36*
X147323Y206271D02*
X146627Y206179D01*
X145979Y205911D01*
X145422Y205484D01*
X144995Y204927D01*
X144726Y204278D01*
X144634Y203583D01*
Y199646D01*
X144726Y198950D01*
X144995Y198301D01*
X145422Y197745D01*
X145979Y197318D01*
X146627Y197049D01*
X147323Y196957D01*
X148019Y197049D01*
X148667Y197318D01*
X149224Y197745D01*
X149651Y198301D01*
X149920Y198950D01*
X150011Y199646D01*
Y203583D01*
X149920Y204278D01*
X149651Y204927D01*
X149224Y205484D01*
X148667Y205911D01*
X148019Y206179D01*
X147323Y206271D01*
D02*
G37*
G36*
X105573Y188768D02*
X104664D01*
X103785Y188532D01*
X102998Y188078D01*
X102355Y187435D01*
X101901Y186648D01*
X101665Y185769D01*
Y184860D01*
X101901Y183982D01*
X102355Y183195D01*
X102998Y182552D01*
X103785Y182097D01*
X104664Y181862D01*
X105573D01*
X106451Y182097D01*
X107238Y182552D01*
X107881Y183195D01*
X108336Y183982D01*
X108571Y184860D01*
Y185769D01*
X108336Y186648D01*
X107881Y187435D01*
X107238Y188078D01*
X106451Y188532D01*
X105573Y188768D01*
D02*
G37*
G36*
Y168768D02*
X104664D01*
X103785Y168532D01*
X102998Y168078D01*
X102355Y167435D01*
X101901Y166648D01*
X101665Y165770D01*
Y164860D01*
X101901Y163982D01*
X102355Y163195D01*
X102998Y162552D01*
X103785Y162098D01*
X104664Y161862D01*
X105573D01*
X106451Y162098D01*
X107238Y162552D01*
X107881Y163195D01*
X108336Y163982D01*
X108571Y164860D01*
Y165770D01*
X108336Y166648D01*
X107881Y167435D01*
X107238Y168078D01*
X106451Y168532D01*
X105573Y168768D01*
D02*
G37*
G36*
Y158768D02*
X104664D01*
X103785Y158532D01*
X102998Y158078D01*
X102355Y157435D01*
X101901Y156648D01*
X101665Y155770D01*
Y154860D01*
X101901Y153982D01*
X102355Y153195D01*
X102998Y152552D01*
X103785Y152097D01*
X104664Y151862D01*
X105573D01*
X106451Y152097D01*
X107238Y152552D01*
X107881Y153195D01*
X108336Y153982D01*
X108571Y154860D01*
Y155770D01*
X108336Y156648D01*
X107881Y157435D01*
X107238Y158078D01*
X106451Y158532D01*
X105573Y158768D01*
D02*
G37*
G36*
Y138768D02*
X104664D01*
X103785Y138532D01*
X102998Y138078D01*
X102355Y137435D01*
X101901Y136648D01*
X101665Y135769D01*
Y134860D01*
X101901Y133982D01*
X102355Y133195D01*
X102998Y132552D01*
X103785Y132097D01*
X104664Y131862D01*
X105573D01*
X106451Y132097D01*
X107238Y132552D01*
X107881Y133195D01*
X108336Y133982D01*
X108571Y134860D01*
Y135769D01*
X108336Y136648D01*
X107881Y137435D01*
X107238Y138078D01*
X106451Y138532D01*
X105573Y138768D01*
D02*
G37*
G36*
X155573Y128768D02*
X154664D01*
X153785Y128532D01*
X152998Y128078D01*
X152355Y127435D01*
X151901Y126648D01*
X151665Y125769D01*
Y124860D01*
X151901Y123982D01*
X152355Y123195D01*
X152998Y122552D01*
X153785Y122098D01*
X154664Y121862D01*
X155573D01*
X156451Y122098D01*
X157238Y122552D01*
X157881Y123195D01*
X158336Y123982D01*
X158571Y124860D01*
Y125769D01*
X158336Y126648D01*
X157881Y127435D01*
X157238Y128078D01*
X156451Y128532D01*
X155573Y128768D01*
D02*
G37*
G36*
X105573D02*
X104664D01*
X103785Y128532D01*
X102998Y128078D01*
X102355Y127435D01*
X101901Y126648D01*
X101665Y125769D01*
Y124860D01*
X101901Y123982D01*
X102355Y123195D01*
X102998Y122552D01*
X103785Y122098D01*
X104664Y121862D01*
X105573D01*
X106451Y122098D01*
X107238Y122552D01*
X107881Y123195D01*
X108336Y123982D01*
X108571Y124860D01*
Y125769D01*
X108336Y126648D01*
X107881Y127435D01*
X107238Y128078D01*
X106451Y128532D01*
X105573Y128768D01*
D02*
G37*
G36*
X155573Y118768D02*
X154664D01*
X153785Y118532D01*
X152998Y118078D01*
X152355Y117435D01*
X151901Y116648D01*
X151665Y115770D01*
Y114860D01*
X151901Y113982D01*
X152355Y113195D01*
X152998Y112552D01*
X153785Y112098D01*
X154664Y111862D01*
X155573D01*
X156451Y112098D01*
X157238Y112552D01*
X157881Y113195D01*
X158336Y113982D01*
X158571Y114860D01*
Y115770D01*
X158336Y116648D01*
X157881Y117435D01*
X157238Y118078D01*
X156451Y118532D01*
X155573Y118768D01*
D02*
G37*
G36*
X105573D02*
X104664D01*
X103785Y118532D01*
X102998Y118078D01*
X102355Y117435D01*
X101901Y116648D01*
X101665Y115770D01*
Y114860D01*
X101901Y113982D01*
X102355Y113195D01*
X102998Y112552D01*
X103785Y112098D01*
X104664Y111862D01*
X105573D01*
X106451Y112098D01*
X107238Y112552D01*
X107881Y113195D01*
X108336Y113982D01*
X108571Y114860D01*
Y115770D01*
X108336Y116648D01*
X107881Y117435D01*
X107238Y118078D01*
X106451Y118532D01*
X105573Y118768D01*
D02*
G37*
G36*
X128819Y112213D02*
X128268D01*
X127758Y112002D01*
X127368Y111612D01*
X127157Y111102D01*
Y110551D01*
X127368Y110042D01*
X127758Y109652D01*
X128268Y109441D01*
X128819D01*
X129328Y109652D01*
X129718Y110042D01*
X129929Y110551D01*
Y111102D01*
X129718Y111612D01*
X129328Y112002D01*
X128819Y112213D01*
D02*
G37*
G36*
X140630Y110244D02*
X140079D01*
X139569Y110033D01*
X139180Y109643D01*
X138969Y109134D01*
Y108583D01*
X139180Y108073D01*
X139569Y107683D01*
X140079Y107473D01*
X140630D01*
X141139Y107683D01*
X141529Y108073D01*
X141740Y108583D01*
Y109134D01*
X141529Y109643D01*
X141139Y110033D01*
X140630Y110244D01*
D02*
G37*
G36*
X155770Y108768D02*
X154860D01*
X153982Y108532D01*
X153195Y108078D01*
X152552Y107435D01*
X152097Y106648D01*
X151862Y105770D01*
Y104860D01*
X152097Y103982D01*
X152552Y103195D01*
X153195Y102552D01*
X153982Y102097D01*
X154860Y101862D01*
X155770D01*
X156648Y102097D01*
X157435Y102552D01*
X158078Y103195D01*
X158532Y103982D01*
X158768Y104860D01*
Y105770D01*
X158532Y106648D01*
X158078Y107435D01*
X157435Y108078D01*
X156648Y108532D01*
X155770Y108768D01*
D02*
G37*
G36*
X105770D02*
X104860D01*
X103982Y108532D01*
X103195Y108078D01*
X102552Y107435D01*
X102097Y106648D01*
X101862Y105770D01*
Y104860D01*
X102097Y103982D01*
X102552Y103195D01*
X103195Y102552D01*
X103982Y102097D01*
X104860Y101862D01*
X105770D01*
X106648Y102097D01*
X107435Y102552D01*
X108078Y103195D01*
X108532Y103982D01*
X108768Y104860D01*
Y105770D01*
X108532Y106648D01*
X108078Y107435D01*
X107435Y108078D01*
X106648Y108532D01*
X105770Y108768D01*
D02*
G37*
%LPD*%
G36*
X124586Y214106D02*
X124897Y213899D01*
X125262Y213826D01*
X125664D01*
Y212205D01*
X125733Y211856D01*
X125931Y211560D01*
X127157Y210333D01*
Y209961D01*
X127368Y209451D01*
X127758Y209061D01*
X128268Y208850D01*
X128819D01*
X129328Y209061D01*
X129718Y209451D01*
X130187Y209277D01*
X130282Y209186D01*
Y197188D01*
X129782Y197088D01*
X129718Y197242D01*
X129328Y197632D01*
X128819Y197843D01*
X128268D01*
X127870Y197678D01*
X127370Y197897D01*
Y201681D01*
X126108D01*
Y201772D01*
X126039Y202120D01*
X125841Y202416D01*
X125106Y203151D01*
Y206898D01*
X120169D01*
Y202357D01*
X119669Y202123D01*
X119612Y202171D01*
Y211680D01*
X119669Y211719D01*
X120169Y211451D01*
Y207669D01*
X125106D01*
Y212803D01*
X123935D01*
X123728Y213303D01*
X123813Y213388D01*
X124024Y213898D01*
Y214048D01*
X124524Y214200D01*
X124586Y214106D01*
D02*
G37*
G36*
X134204Y196126D02*
X134047Y195748D01*
Y195197D01*
X134258Y194687D01*
X134648Y194298D01*
X135130Y194098D01*
Y191045D01*
X133805Y189719D01*
X133607Y189424D01*
X133538Y189075D01*
Y184710D01*
X133274Y184446D01*
X133063Y183937D01*
Y183386D01*
X133274Y182876D01*
X133664Y182487D01*
X134173Y182276D01*
X134724D01*
X135234Y182487D01*
X135624Y182876D01*
X135835Y183386D01*
Y183937D01*
X135624Y184446D01*
X135539Y184531D01*
X135746Y185031D01*
X139673D01*
Y186195D01*
X140256D01*
X140605Y186265D01*
X140900Y186462D01*
X140912Y186473D01*
X141412Y186266D01*
Y185482D01*
X141150Y185373D01*
X141150D01*
X137659Y181882D01*
X137895Y181645D01*
X137688Y181145D01*
X137485D01*
X136975Y180934D01*
X136585Y180544D01*
X136544Y180445D01*
X136017Y180411D01*
X135627Y180800D01*
X135118Y181011D01*
X134567D01*
X134057Y180800D01*
X133668Y180411D01*
X133457Y179901D01*
Y179350D01*
X133668Y178840D01*
X134057Y178451D01*
X134567Y178240D01*
X135118D01*
X135627Y178451D01*
X136017Y178840D01*
X136058Y178940D01*
X136585Y178974D01*
X136975Y178585D01*
X136941Y178058D01*
X136841Y178016D01*
X136451Y177627D01*
X136241Y177117D01*
Y176566D01*
X136451Y176057D01*
X136841Y175667D01*
X137351Y175456D01*
X137902D01*
X138411Y175667D01*
X138801Y176057D01*
X138842Y176156D01*
X139369Y176190D01*
X139759Y175801D01*
X139725Y175274D01*
X139625Y175233D01*
X139235Y174843D01*
X139024Y174333D01*
Y173782D01*
X139235Y173273D01*
X139625Y172883D01*
X140135Y172672D01*
X140686D01*
X141195Y172883D01*
X141585Y173273D01*
X141626Y173372D01*
X142153Y173407D01*
X142543Y173017D01*
X142509Y172490D01*
X142409Y172449D01*
X142019Y172059D01*
X141808Y171549D01*
Y170998D01*
X142019Y170489D01*
X142374Y170134D01*
X142343Y169940D01*
X142218Y169637D01*
X141880Y169600D01*
X139738Y171742D01*
X138776Y170781D01*
X138304Y171252D01*
X138009Y171449D01*
X137660Y171519D01*
X136303D01*
X133793Y174029D01*
X130680Y170916D01*
X130180Y171123D01*
Y172621D01*
X132690Y175131D01*
X129339Y178483D01*
X125848Y174992D01*
X128358Y172482D01*
Y169480D01*
X127896Y169288D01*
X126516Y170668D01*
X126220Y170866D01*
X125871Y170935D01*
X124403D01*
X122021Y173317D01*
X121907Y173203D01*
X121483Y173486D01*
X121605Y173782D01*
Y174333D01*
X121395Y174843D01*
X121005Y175233D01*
X120905Y175274D01*
X120871Y175801D01*
X121261Y176190D01*
X121788Y176156D01*
X121829Y176057D01*
X122219Y175667D01*
X122728Y175456D01*
X123279D01*
X123788Y175667D01*
X124178Y176057D01*
X124389Y176566D01*
Y177117D01*
X124178Y177627D01*
X123788Y178016D01*
X123689Y178058D01*
X123655Y178585D01*
X124045Y178974D01*
X124571Y178940D01*
X124613Y178840D01*
X125002Y178451D01*
X125512Y178240D01*
X126063D01*
X126572Y178451D01*
X126962Y178840D01*
X127173Y179350D01*
Y179901D01*
X126962Y180411D01*
X126572Y180800D01*
X126063Y181011D01*
X125512D01*
X125002Y180800D01*
X124613Y180411D01*
X124086Y180445D01*
X124045Y180544D01*
X123655Y180934D01*
X123145Y181145D01*
X122594D01*
X122085Y180934D01*
X121695Y180544D01*
X121484Y180035D01*
Y179484D01*
X121695Y178974D01*
X122085Y178585D01*
X122184Y178543D01*
X122219Y178016D01*
X121829Y177627D01*
X121302Y177661D01*
X121261Y177761D01*
X120871Y178150D01*
X120361Y178361D01*
X119810D01*
X119301Y178150D01*
X118911Y177761D01*
X118700Y177251D01*
Y176700D01*
X118911Y176190D01*
X119301Y175801D01*
X119400Y175759D01*
X119435Y175233D01*
X119045Y174843D01*
X118518Y174877D01*
X118477Y174977D01*
X118087Y175366D01*
X117578Y175577D01*
X117026D01*
X116517Y175366D01*
X116127Y174977D01*
X115916Y174467D01*
Y173916D01*
X116127Y173407D01*
X116517Y173017D01*
X116616Y172976D01*
X116651Y172449D01*
X116261Y172059D01*
X115734Y172093D01*
X115693Y172193D01*
X115303Y172583D01*
X114794Y172793D01*
X114571D01*
Y176041D01*
X117221Y178690D01*
X113730Y182181D01*
X110313Y178764D01*
X109862Y178943D01*
X109813Y179390D01*
X111471Y181049D01*
X111669Y181344D01*
X111738Y181693D01*
Y185630D01*
X111669Y185979D01*
X111471Y186274D01*
X111245Y186500D01*
X111452Y187000D01*
X115067D01*
X115445Y186803D01*
Y186803D01*
X116805D01*
Y185257D01*
X114275Y182727D01*
X117766Y179236D01*
X121397Y182866D01*
X118628Y185635D01*
Y186803D01*
X119988D01*
Y188065D01*
X120547D01*
Y187126D01*
X120610Y186808D01*
X120790Y186538D01*
X121060Y186358D01*
X121378Y186295D01*
X123898D01*
X124216Y186358D01*
X124485Y186538D01*
X124553Y186640D01*
X125053Y186754D01*
X125161Y186739D01*
X128142Y183759D01*
Y183386D01*
X128353Y182876D01*
X128743Y182487D01*
X129252Y182276D01*
X129803D01*
X130313Y182487D01*
X130702Y182876D01*
X130913Y183386D01*
Y183937D01*
X130702Y184446D01*
X130420Y184728D01*
X130572Y185227D01*
X130574Y185228D01*
X130591D01*
X131100Y185439D01*
X131490Y185829D01*
X131701Y186338D01*
Y186890D01*
X131490Y187399D01*
X131100Y187789D01*
X130591Y188000D01*
X130039D01*
X129609Y187822D01*
X127486Y189944D01*
Y190964D01*
X127986Y191251D01*
X128268Y191134D01*
X128712D01*
X128950Y190958D01*
X129126Y190720D01*
Y190276D01*
X129337Y189766D01*
X129727Y189376D01*
X130236Y189165D01*
X130788D01*
X131297Y189376D01*
X131687Y189766D01*
X131898Y190276D01*
Y190827D01*
X131687Y191336D01*
X131423Y191600D01*
Y192142D01*
X133125Y193844D01*
X133322Y194140D01*
X133391Y194488D01*
Y196021D01*
X133780Y196410D01*
X134204Y196126D01*
D02*
G37*
G36*
X128416Y166191D02*
X128240Y165767D01*
Y164942D01*
X128523Y164260D01*
X128153Y163891D01*
X127191Y164853D01*
X124257Y161918D01*
X127470Y158706D01*
X128293Y159529D01*
X129017Y158804D01*
X128194Y157982D01*
X131407Y154769D01*
X134480Y157842D01*
X131267Y161055D01*
X130306Y160093D01*
X129581Y160817D01*
X130404Y161640D01*
X129442Y162602D01*
X130119Y163279D01*
X130728D01*
X130992Y163389D01*
X133773Y160608D01*
X134068Y160410D01*
X134417Y160341D01*
X136840D01*
X139002Y158179D01*
X142215Y161391D01*
X141392Y162214D01*
X142116Y162939D01*
X142939Y162116D01*
X143901Y163078D01*
X145201Y161778D01*
Y160471D01*
X144872Y160157D01*
X144369Y160220D01*
X143979Y160610D01*
X143470Y160821D01*
X142919D01*
X142409Y160610D01*
X142019Y160220D01*
X141808Y159711D01*
Y159159D01*
X142019Y158650D01*
X142409Y158260D01*
X142509Y158219D01*
X142543Y157692D01*
X142153Y157302D01*
X141626Y157336D01*
X141585Y157436D01*
X141195Y157826D01*
X140686Y158037D01*
X140135D01*
X139625Y157826D01*
X139235Y157436D01*
X139024Y156927D01*
Y156375D01*
X139235Y155866D01*
X139625Y155476D01*
X139725Y155435D01*
X139759Y154908D01*
X139369Y154518D01*
X138842Y154553D01*
X138801Y154652D01*
X138411Y155042D01*
X137902Y155253D01*
X137351D01*
X136841Y155042D01*
X136451Y154652D01*
X136241Y154143D01*
Y153591D01*
X136451Y153082D01*
X136841Y152692D01*
X136941Y152651D01*
X136975Y152124D01*
X136585Y151734D01*
X136058Y151769D01*
X136017Y151868D01*
X135627Y152258D01*
X135118Y152469D01*
X134567D01*
X134057Y152258D01*
X133668Y151868D01*
X133457Y151359D01*
Y150807D01*
X133668Y150298D01*
X134057Y149908D01*
X134567Y149697D01*
X135118D01*
X135627Y149908D01*
X136017Y150298D01*
X136544Y150264D01*
X136585Y150164D01*
X136975Y149774D01*
X137485Y149564D01*
X138036D01*
X138545Y149774D01*
X138935Y150164D01*
X139146Y150674D01*
Y151225D01*
X138935Y151734D01*
X138545Y152124D01*
X138446Y152165D01*
X138411Y152692D01*
X138801Y153082D01*
X139328Y153048D01*
X139369Y152948D01*
X139759Y152558D01*
X140269Y152347D01*
X140820D01*
X141329Y152558D01*
X141719Y152948D01*
X141930Y153457D01*
Y154009D01*
X141719Y154518D01*
X141329Y154908D01*
X141230Y154949D01*
X141195Y155476D01*
X141585Y155866D01*
X142112Y155832D01*
X142153Y155732D01*
X142543Y155342D01*
X143052Y155131D01*
X143604D01*
X144113Y155342D01*
X144503Y155732D01*
X144714Y156241D01*
Y156793D01*
X144503Y157302D01*
X144113Y157692D01*
X144014Y157733D01*
X143979Y158260D01*
X144369Y158650D01*
X144896Y158615D01*
X144937Y158516D01*
X145327Y158126D01*
X145836Y157915D01*
X146388D01*
X146897Y158126D01*
X147287Y158516D01*
X147498Y159025D01*
Y159577D01*
X147377Y159868D01*
X148483Y160973D01*
X148983Y160766D01*
Y146334D01*
X133087Y130439D01*
X130105D01*
X130095Y130446D01*
X129813Y130939D01*
X129929Y131220D01*
Y131772D01*
X129718Y132281D01*
X129328Y132671D01*
X128819Y132882D01*
X128268D01*
X127758Y132671D01*
X127368Y132281D01*
X127157Y131772D01*
Y131220D01*
X127368Y130711D01*
X127758Y130321D01*
X128159Y130155D01*
X128302Y129795D01*
X128322Y129610D01*
X127233Y128522D01*
X126916Y128401D01*
X126502Y128728D01*
Y129528D01*
X126432Y129876D01*
X126235Y130172D01*
X115675Y140732D01*
Y141274D01*
X115939Y141538D01*
X116150Y142047D01*
Y142598D01*
X115939Y143108D01*
X115549Y143498D01*
X115039Y143709D01*
X114488D01*
X113979Y143498D01*
X113657Y143864D01*
X114424Y144631D01*
X114621Y144927D01*
X114691Y145276D01*
Y147440D01*
X114853Y147879D01*
X114853Y147879D01*
X114853Y147879D01*
X118066Y151092D01*
X117014Y152143D01*
X117377Y152505D01*
X117405Y152548D01*
X118238Y153381D01*
X118794Y153230D01*
X118911Y152948D01*
X119301Y152558D01*
X119810Y152347D01*
X120361D01*
X120871Y152558D01*
X121261Y152948D01*
X121302Y153048D01*
X121829Y153082D01*
X122219Y152692D01*
X122184Y152165D01*
X122085Y152124D01*
X121695Y151734D01*
X121484Y151225D01*
Y150674D01*
X121695Y150164D01*
X122085Y149774D01*
X122594Y149564D01*
X123145D01*
X123655Y149774D01*
X124045Y150164D01*
X124086Y150264D01*
X124613Y150298D01*
X125002Y149908D01*
X125512Y149697D01*
X126063D01*
X126572Y149908D01*
X126962Y150298D01*
X127173Y150807D01*
Y151057D01*
X127673Y151264D01*
X127788Y151150D01*
X128680Y152042D01*
X129404Y151318D01*
X127210Y149123D01*
X130422Y145911D01*
X131315Y146803D01*
X132201Y145917D01*
X132158Y145852D01*
X132095Y145534D01*
X132158Y145216D01*
X132338Y144947D01*
X134120Y143165D01*
X134389Y142985D01*
X134707Y142922D01*
X135025Y142985D01*
X135295Y143165D01*
X137077Y144947D01*
X137257Y145216D01*
X137320Y145534D01*
X137257Y145852D01*
X137077Y146122D01*
X135295Y147903D01*
X135025Y148084D01*
X134707Y148147D01*
X134389Y148084D01*
X134120Y147903D01*
X133456Y147239D01*
X132603Y148092D01*
X133496Y148984D01*
X131264Y151216D01*
Y151658D01*
X131195Y152007D01*
X130997Y152302D01*
X129969Y153331D01*
X130861Y154223D01*
X127648Y157436D01*
X126756Y156544D01*
X126032Y157268D01*
X126924Y158160D01*
X123711Y161373D01*
X120777Y158439D01*
Y158439D01*
X120491Y158057D01*
X120472Y158037D01*
X119944D01*
X119435Y157826D01*
X119045Y157436D01*
X119004Y157336D01*
X118477Y157302D01*
X118087Y157692D01*
X118121Y158219D01*
X118221Y158260D01*
X118611Y158650D01*
X118822Y159159D01*
Y159711D01*
X118611Y160220D01*
X118221Y160610D01*
X117711Y160821D01*
X117160D01*
X116651Y160610D01*
X116277Y160236D01*
X116048Y160219D01*
X115758Y160219D01*
X115568Y160540D01*
X116945Y161916D01*
X119124D01*
X121286Y159754D01*
X124498Y162966D01*
X123676Y163789D01*
X124400Y164513D01*
X125223Y163691D01*
X128069Y166537D01*
X128416Y166191D01*
D02*
G37*
G36*
X148038Y142124D02*
X147827Y141614D01*
Y141063D01*
X148038Y140554D01*
X148428Y140164D01*
X148937Y139953D01*
X149488D01*
X149770Y140069D01*
X150270Y139783D01*
Y128921D01*
X138993Y117643D01*
X135497D01*
X135234Y117907D01*
X134724Y118118D01*
X134352D01*
X132407Y120062D01*
Y123319D01*
X133768D01*
Y127862D01*
X130075D01*
X129850Y128359D01*
X130050Y128616D01*
X133465D01*
X133813Y128686D01*
X134109Y128883D01*
X147671Y142445D01*
X148038Y142124D01*
D02*
G37*
G36*
X124679Y129150D02*
Y128608D01*
X124416Y128344D01*
X124205Y127835D01*
Y127283D01*
X124416Y126774D01*
X124805Y126384D01*
X125315Y126173D01*
X125866D01*
X126148Y126290D01*
X126648Y126003D01*
Y116126D01*
X122042Y111520D01*
X121581Y111711D01*
Y131496D01*
X121569Y131553D01*
X122030Y131799D01*
X124679Y129150D01*
D02*
G37*
%LPC*%
G36*
X118611Y150546D02*
X115399Y147334D01*
X118333Y144399D01*
X120495Y146562D01*
X123941D01*
X124148Y146062D01*
X123591Y145504D01*
X126803Y142292D01*
X127278Y142766D01*
X128130Y141914D01*
X127884Y141667D01*
X127704Y141398D01*
X127641Y141080D01*
X127704Y140762D01*
X127884Y140492D01*
X129342Y139034D01*
Y135756D01*
X129078Y135492D01*
X128867Y134983D01*
Y134432D01*
X129078Y133922D01*
X129468Y133533D01*
X129978Y133322D01*
X130529D01*
X131038Y133533D01*
X131428Y133922D01*
X131639Y134432D01*
Y134983D01*
X131428Y135492D01*
X131164Y135756D01*
Y139034D01*
X132622Y140492D01*
X132803Y140762D01*
X132866Y141080D01*
X132803Y141398D01*
X132622Y141667D01*
X130841Y143449D01*
X130571Y143629D01*
X130253Y143693D01*
X129935Y143629D01*
X129666Y143449D01*
X129419Y143203D01*
X128567Y144055D01*
X129877Y145365D01*
X126664Y148578D01*
X125772Y147685D01*
X125340Y148117D01*
X125044Y148314D01*
X124696Y148384D01*
X120774D01*
X118611Y150546D01*
D02*
G37*
G36*
X139673Y127862D02*
X135130D01*
Y123319D01*
X139673D01*
Y127862D01*
D02*
G37*
%LPD*%
D12*
X133465Y129528D02*
X149894Y145957D01*
X109843Y206299D02*
X111811Y208268D01*
X109843Y186614D02*
Y206299D01*
Y186614D02*
X110827Y185630D01*
Y181693D02*
Y185630D01*
X108858Y179724D02*
X110827Y181693D01*
X108858Y177756D02*
Y179724D01*
Y177756D02*
X111811Y174803D01*
Y158071D02*
Y174803D01*
Y158071D02*
X113365Y156517D01*
X117302D01*
X149213Y180709D02*
X149894Y180028D01*
Y145957D02*
Y180028D01*
X151181Y197441D02*
X155118Y201378D01*
X151181Y128543D02*
Y197441D01*
X155118Y201378D02*
Y205315D01*
X146112Y159891D02*
Y162156D01*
Y159301D02*
Y159891D01*
X148228Y162008D01*
Y174803D01*
X145395Y177637D02*
X148228Y174803D01*
X147244Y183661D02*
Y186417D01*
X146260Y182677D02*
X147244Y183661D01*
X140256Y187106D02*
X142224Y189075D01*
X141219Y181812D02*
X142323Y182916D01*
Y188976D01*
X129528Y129528D02*
X133465D01*
X127559Y127559D02*
X129528Y129528D01*
X127559Y115748D02*
Y127559D01*
X120669Y108858D02*
X127559Y115748D01*
X131496Y119685D02*
X134449Y116732D01*
X139370D02*
X151181Y128543D01*
X134449Y116732D02*
X139370D01*
Y193996D02*
X145965D01*
X141929Y194488D02*
X142323Y194095D01*
X141929Y194488D02*
Y199409D01*
X145965Y193996D02*
X147244Y192717D01*
X137402Y192028D02*
X139370Y193996D01*
X142323Y188976D02*
X144882Y186417D01*
X142224Y189075D02*
X142323Y188976D01*
X144882Y186417D02*
X147244D01*
X137402Y187106D02*
X140256D01*
X131496Y119685D02*
Y125591D01*
X110827Y109843D02*
Y137402D01*
X109843Y138386D02*
X110827Y137402D01*
X109843Y138386D02*
Y143307D01*
X128543Y192520D02*
X131193Y195169D01*
Y209933D01*
X131496Y210236D01*
X130315Y186614D02*
X130512D01*
X129528D02*
X130315D01*
X124803Y188386D02*
X129528Y183661D01*
X143307Y213189D02*
X144291Y214173D01*
X140354Y213189D02*
X143307D01*
X137402Y210236D02*
X140354Y213189D01*
X139599Y168669D02*
X145047D01*
X132480Y196398D02*
X133768Y197686D01*
Y213492D01*
X130512Y192520D02*
X132480Y194488D01*
Y196398D01*
X133768Y213492D02*
X136370Y216094D01*
X134449Y183661D02*
Y189075D01*
X144291Y217126D02*
Y218158D01*
X140354Y222094D02*
X144291Y218158D01*
X113779Y149740D02*
X114992Y150952D01*
X113779Y145276D02*
Y149740D01*
X111811Y143307D02*
X113779Y145276D01*
X111811Y140354D02*
Y143307D01*
Y140354D02*
X120669Y131496D01*
Y108858D02*
Y131496D01*
X114764Y140354D02*
Y142323D01*
X125591Y127559D02*
Y129528D01*
X114764Y140354D02*
X125591Y129528D01*
X110827Y149213D02*
Y152165D01*
X113779Y155118D01*
X115903D01*
X117302Y156517D01*
X118701Y200787D02*
Y213189D01*
Y200787D02*
X120079Y199409D01*
X112795Y215158D02*
X116732D01*
X124696Y147473D02*
X126734Y145435D01*
X118472Y147473D02*
X124696D01*
X130253Y134707D02*
Y141080D01*
X114992Y150952D02*
Y151410D01*
X116732Y153150D01*
Y153164D01*
X120220Y156651D01*
X136811Y203740D02*
X137402Y204331D01*
X136811Y199409D02*
Y203740D01*
X130512Y190551D02*
Y192520D01*
X116732Y215158D02*
X120669Y219094D01*
X126575Y189567D02*
X129528Y186614D01*
X126575Y189567D02*
Y194488D01*
X125197Y195866D02*
X126575Y194488D01*
X125197Y195866D02*
Y199409D01*
X135433Y195472D02*
X136811Y196850D01*
X122638Y188386D02*
X124803D01*
X134449Y189075D02*
X137402Y192028D01*
X113660Y172266D02*
X114518Y171408D01*
X113660Y172266D02*
Y178621D01*
X136811Y196850D02*
Y199409D01*
X117717Y182916D02*
X117836Y182797D01*
X117717Y182916D02*
Y188976D01*
X140354Y182677D02*
X141219Y181812D01*
X122047Y188976D02*
X122638Y188386D01*
X117717Y188976D02*
X122047D01*
X117618Y189075D02*
X117717Y188976D01*
X112795Y189075D02*
X117618D01*
X146653Y192126D02*
X147244Y192717D01*
X117717Y197047D02*
X120079Y199409D01*
X117717Y194095D02*
Y197047D01*
X122047Y194095D02*
X122638Y194685D01*
X117717Y194095D02*
X122047D01*
X117618Y193996D02*
X117717Y194095D01*
X112795Y193996D02*
X117618D01*
X125197Y199409D02*
Y201772D01*
X122638Y204331D02*
X125197Y201772D01*
X122638Y210236D02*
Y214173D01*
X140354Y225984D02*
X140972D01*
X134449Y217126D02*
Y219094D01*
X132480Y215158D02*
X134449Y217126D01*
X126575Y212205D02*
Y216094D01*
Y212205D02*
X128543Y210236D01*
X126575Y222094D02*
X129528Y219142D01*
X121653Y225984D02*
X126575D01*
X120669Y225000D02*
X121653Y225984D01*
X135433D02*
X140354D01*
X134449Y225000D02*
X135433Y225984D01*
X136370Y216094D02*
X139370D01*
X123851Y157498D02*
Y158160D01*
X120086Y153733D02*
X123851Y157498D01*
X114518Y159301D02*
Y160778D01*
X130353Y149054D02*
Y151658D01*
X127718Y154293D02*
X130353Y151658D01*
X126734Y144599D02*
X130253Y141080D01*
X126734Y144599D02*
Y145435D01*
X133872Y145534D02*
X134707D01*
X130353Y149054D02*
X133872Y145534D01*
X143078Y165189D02*
X146112Y162156D01*
Y169734D02*
Y171408D01*
X145047Y168669D02*
X146112Y169734D01*
X114518D02*
Y171408D01*
Y169734D02*
X117945Y166307D01*
X114518Y160778D02*
X116567Y162827D01*
X121425D01*
X129269Y166626D02*
Y175062D01*
X130315Y165354D02*
X134417Y161252D01*
X139141D01*
X125871Y170024D02*
X129269Y166626D01*
X121882Y170024D02*
X125871D01*
X121882Y170244D02*
Y170244D01*
Y170024D02*
Y170244D01*
X130315Y164764D02*
Y165354D01*
X127331Y161779D02*
X130315Y164764D01*
X125362Y166764D02*
Y166764D01*
X121425Y162827D02*
X125362Y166764D01*
X127331Y161779D02*
X131198Y157912D01*
X131337D01*
X139141Y161252D02*
X143078Y165189D01*
X137660Y170607D02*
X139599Y168669D01*
X133723Y170607D02*
X137660D01*
X135662Y164732D02*
X139599Y168669D01*
X117945Y166307D02*
X121882Y170244D01*
X123851Y158160D02*
X127718Y154293D01*
D26*
X112795Y189075D02*
D03*
Y193996D02*
D03*
X137402Y192028D02*
D03*
Y187106D02*
D03*
D32*
X130253Y141080D02*
D03*
X134707Y145534D02*
D03*
D54*
X147323Y201614D02*
D03*
X113307D02*
D03*
D55*
Y222716D02*
D03*
X147323D02*
D03*
D56*
X105118Y115315D02*
D03*
X105315Y105315D02*
D03*
X155315D02*
D03*
X155118Y115315D02*
D03*
Y125315D02*
D03*
Y135315D02*
D03*
Y145315D02*
D03*
Y155315D02*
D03*
Y165315D02*
D03*
Y175315D02*
D03*
Y185315D02*
D03*
Y195315D02*
D03*
Y205315D02*
D03*
Y215315D02*
D03*
Y225315D02*
D03*
X105118D02*
D03*
Y215315D02*
D03*
Y205315D02*
D03*
Y195315D02*
D03*
Y185315D02*
D03*
Y175315D02*
D03*
Y165315D02*
D03*
Y155315D02*
D03*
Y145315D02*
D03*
Y135315D02*
D03*
Y125315D02*
D03*
D57*
X120669Y108858D02*
D03*
X118701Y116732D02*
D03*
X112795Y123622D02*
D03*
X128543Y110827D02*
D03*
X111811Y208268D02*
D03*
X149213Y180709D02*
D03*
X128543Y131496D02*
D03*
X143328Y174192D02*
D03*
X146260Y182677D02*
D03*
X134449Y116732D02*
D03*
X110827Y109843D02*
D03*
X109843Y143307D02*
D03*
X114764Y163976D02*
D03*
X131496Y210236D02*
D03*
X128543Y196457D02*
D03*
Y192520D02*
D03*
X130315Y186614D02*
D03*
X129527Y183661D02*
D03*
X141339Y211221D02*
D03*
X144291Y214173D02*
D03*
X143194Y171274D02*
D03*
X134449Y183661D02*
D03*
X144291Y217126D02*
D03*
X114764Y142323D02*
D03*
X110827Y149213D02*
D03*
X125591Y127559D02*
D03*
X118701Y213189D02*
D03*
X112795Y215158D02*
D03*
X149213Y141339D02*
D03*
X140354Y108858D02*
D03*
X130253Y134707D02*
D03*
X126575Y194488D02*
D03*
X130512Y190551D02*
D03*
X135433Y195472D02*
D03*
X137760Y179759D02*
D03*
X134843Y179625D02*
D03*
X122638Y214173D02*
D03*
X129528Y219142D02*
D03*
X140354Y225984D02*
D03*
X126575D02*
D03*
X132480Y215158D02*
D03*
X117302Y156517D02*
D03*
X120220Y156651D02*
D03*
X122870Y150949D02*
D03*
X137760D02*
D03*
X140410Y156651D02*
D03*
X143194Y159435D02*
D03*
X137626Y153867D02*
D03*
X140544Y153733D02*
D03*
X117436Y159435D02*
D03*
X123003Y153867D02*
D03*
X125787Y151083D02*
D03*
X120086Y153733D02*
D03*
X114518Y159301D02*
D03*
X134843Y151083D02*
D03*
X143328Y156517D02*
D03*
X146112Y159301D02*
D03*
X137626Y176842D02*
D03*
X140410Y174058D02*
D03*
X140544Y176976D02*
D03*
X146112Y171408D02*
D03*
X120220Y174058D02*
D03*
X123003Y176842D02*
D03*
X128543Y210236D02*
D03*
X114518Y171408D02*
D03*
X117302Y174192D02*
D03*
X120086Y176976D02*
D03*
X117436Y171274D02*
D03*
X122870Y179759D02*
D03*
X125787Y179625D02*
D03*
D58*
X130315Y165354D02*
D03*
D66*
X133723Y170607D02*
D03*
X129269Y175062D02*
D03*
D67*
X137402Y125591D02*
D03*
X131496D02*
D03*
D68*
X142323Y188976D02*
D03*
Y194095D02*
D03*
X117717Y188976D02*
D03*
Y194095D02*
D03*
D69*
X147244Y192717D02*
D03*
Y186417D02*
D03*
X122638Y188386D02*
D03*
Y194685D02*
D03*
D70*
X130353Y149054D02*
D03*
X126734Y145435D02*
D03*
X127718Y154293D02*
D03*
X131337Y157912D02*
D03*
D71*
X118472Y147473D02*
D03*
X114992Y150952D02*
D03*
X117945Y166307D02*
D03*
X121425Y162827D02*
D03*
X121882Y170244D02*
D03*
X125362Y166764D02*
D03*
X139141Y161252D02*
D03*
X135662Y164732D02*
D03*
X143078Y165189D02*
D03*
X139599Y168669D02*
D03*
D72*
X127331Y161779D02*
D03*
X123851Y158299D02*
D03*
D73*
X117836Y182797D02*
D03*
X113660Y178621D02*
D03*
D74*
X145395Y177637D02*
D03*
X141219Y181812D02*
D03*
D75*
X136811Y199409D02*
D03*
X141929D02*
D03*
X125197D02*
D03*
X120079D02*
D03*
D76*
X120669Y219094D02*
D03*
Y225000D02*
D03*
X134449Y219094D02*
D03*
Y225000D02*
D03*
X137402Y210236D02*
D03*
Y204331D02*
D03*
X122638Y210236D02*
D03*
Y204331D02*
D03*
D77*
X126575Y222094D02*
D03*
Y216094D02*
D03*
X140354D02*
D03*
Y222094D02*
D03*
M02*
