G04*
G04 #@! TF.GenerationSoftware,Altium Limited,CircuitMaker,2.2.1 (2.2.1.6)*
G04*
G04 Layer_Physical_Order=3*
G04 Layer_Color=16765976*
%FSLAX25Y25*%
%MOIN*%
G70*
G04*
G04 #@! TF.SameCoordinates,FB4DA932-24D3-4F87-B050-2CA4388B978A*
G04*
G04*
G04 #@! TF.FilePolarity,Positive*
G04*
G01*
G75*
%ADD12C,0.00787*%
%ADD56C,0.05905*%
%ADD57C,0.01772*%
G36*
X157841Y230557D02*
X158558Y230261D01*
X159203Y229830D01*
X159751Y229281D01*
X160182Y228637D01*
X160479Y227920D01*
X160630Y227159D01*
Y226772D01*
Y103937D01*
Y103549D01*
X160479Y102789D01*
X160182Y102072D01*
X159751Y101427D01*
X159203Y100879D01*
X158558Y100448D01*
X157841Y100151D01*
X157081Y100000D01*
X103549D01*
X102789Y100151D01*
X102072Y100448D01*
X101427Y100879D01*
X100879Y101427D01*
X100448Y102072D01*
X100151Y102789D01*
X100000Y103549D01*
Y103937D01*
Y226772D01*
Y227159D01*
X100151Y227920D01*
X100448Y228637D01*
X100879Y229281D01*
X101427Y229830D01*
X102072Y230261D01*
X102789Y230557D01*
X103549Y230709D01*
X157081D01*
X157841Y230557D01*
D02*
G37*
%LPC*%
G36*
X140630Y227370D02*
X140079D01*
X139569Y227159D01*
X139180Y226769D01*
X138969Y226260D01*
Y225709D01*
X139180Y225199D01*
X139569Y224809D01*
X140079Y224598D01*
X140630D01*
X141139Y224809D01*
X141529Y225199D01*
X141740Y225709D01*
Y226260D01*
X141529Y226769D01*
X141139Y227159D01*
X140630Y227370D01*
D02*
G37*
G36*
X126850D02*
X126299D01*
X125790Y227159D01*
X125400Y226769D01*
X125189Y226260D01*
Y225709D01*
X125400Y225199D01*
X125790Y224809D01*
X126299Y224598D01*
X126850D01*
X127360Y224809D01*
X127750Y225199D01*
X127961Y225709D01*
Y226260D01*
X127750Y226769D01*
X127360Y227159D01*
X126850Y227370D01*
D02*
G37*
G36*
X155573Y228768D02*
X154664D01*
X153785Y228532D01*
X152998Y228078D01*
X152355Y227435D01*
X151901Y226648D01*
X151665Y225769D01*
Y224860D01*
X151901Y223982D01*
X152355Y223195D01*
X152998Y222552D01*
X153785Y222097D01*
X154664Y221862D01*
X155573D01*
X156451Y222097D01*
X157238Y222552D01*
X157881Y223195D01*
X158336Y223982D01*
X158571Y224860D01*
Y225769D01*
X158336Y226648D01*
X157881Y227435D01*
X157238Y228078D01*
X156451Y228532D01*
X155573Y228768D01*
D02*
G37*
G36*
X105573D02*
X104664D01*
X103785Y228532D01*
X102998Y228078D01*
X102355Y227435D01*
X101901Y226648D01*
X101665Y225769D01*
Y224860D01*
X101901Y223982D01*
X102355Y223195D01*
X102998Y222552D01*
X103785Y222097D01*
X104664Y221862D01*
X105573D01*
X106451Y222097D01*
X107238Y222552D01*
X107881Y223195D01*
X108336Y223982D01*
X108571Y224860D01*
Y225769D01*
X108336Y226648D01*
X107881Y227435D01*
X107238Y228078D01*
X106451Y228532D01*
X105573Y228768D01*
D02*
G37*
G36*
X129803Y220528D02*
X129252D01*
X128743Y220317D01*
X128353Y219927D01*
X128142Y219417D01*
Y218866D01*
X128353Y218357D01*
X128743Y217967D01*
X129252Y217756D01*
X129803D01*
X130313Y217967D01*
X130702Y218357D01*
X130913Y218866D01*
Y219417D01*
X130702Y219927D01*
X130313Y220317D01*
X129803Y220528D01*
D02*
G37*
G36*
X147323Y228358D02*
X146627Y228266D01*
X145979Y227997D01*
X145422Y227570D01*
X144995Y227013D01*
X144726Y226365D01*
X144634Y225669D01*
Y219764D01*
X144726Y219068D01*
X144766Y218970D01*
X144706Y218832D01*
X144415Y218512D01*
X144016D01*
X143506Y218301D01*
X143116Y217911D01*
X142905Y217402D01*
Y216850D01*
X143116Y216341D01*
X143506Y215951D01*
X143581Y215920D01*
Y215379D01*
X143506Y215348D01*
X143116Y214958D01*
X142905Y214449D01*
Y213898D01*
X143116Y213388D01*
X143506Y212998D01*
X144016Y212787D01*
X144567D01*
X145076Y212998D01*
X145466Y213388D01*
X145677Y213898D01*
Y214449D01*
X145466Y214958D01*
X145076Y215348D01*
X145002Y215379D01*
Y215920D01*
X145076Y215951D01*
X145466Y216341D01*
X145677Y216850D01*
Y217038D01*
X145736Y217115D01*
X146177Y217353D01*
X146627Y217167D01*
X147323Y217075D01*
X148019Y217167D01*
X148667Y217436D01*
X149224Y217863D01*
X149651Y218420D01*
X149920Y219068D01*
X150011Y219764D01*
Y225669D01*
X149920Y226365D01*
X149651Y227013D01*
X149224Y227570D01*
X148667Y227997D01*
X148019Y228266D01*
X147323Y228358D01*
D02*
G37*
G36*
X113307D02*
X112611Y228266D01*
X111963Y227997D01*
X111406Y227570D01*
X110979Y227013D01*
X110710Y226365D01*
X110619Y225669D01*
Y219764D01*
X110710Y219068D01*
X110979Y218420D01*
X111406Y217863D01*
X111963Y217436D01*
X112611Y217167D01*
X113307Y217075D01*
X114003Y217167D01*
X114651Y217436D01*
X115208Y217863D01*
X115635Y218420D01*
X115904Y219068D01*
X115995Y219764D01*
Y225669D01*
X115904Y226365D01*
X115635Y227013D01*
X115208Y227570D01*
X114651Y227997D01*
X114003Y228266D01*
X113307Y228358D01*
D02*
G37*
G36*
X132756Y216543D02*
X132205D01*
X131695Y216332D01*
X131306Y215943D01*
X131095Y215433D01*
Y214882D01*
X131306Y214372D01*
X131695Y213983D01*
X132205Y213772D01*
X132756D01*
X133265Y213983D01*
X133655Y214372D01*
X133866Y214882D01*
Y215433D01*
X133655Y215943D01*
X133265Y216332D01*
X132756Y216543D01*
D02*
G37*
G36*
X113071D02*
X112520D01*
X112010Y216332D01*
X111620Y215943D01*
X111409Y215433D01*
Y214882D01*
X111620Y214372D01*
X112010Y213983D01*
X112520Y213772D01*
X113071D01*
X113580Y213983D01*
X113970Y214372D01*
X114181Y214882D01*
Y215433D01*
X113970Y215943D01*
X113580Y216332D01*
X113071Y216543D01*
D02*
G37*
G36*
X122914Y215559D02*
X122362D01*
X121853Y215348D01*
X121463Y214958D01*
X121252Y214449D01*
Y213898D01*
X121463Y213388D01*
X121853Y212998D01*
X122362Y212787D01*
X122914D01*
X123423Y212998D01*
X123813Y213388D01*
X124024Y213898D01*
Y214449D01*
X123813Y214958D01*
X123423Y215348D01*
X122914Y215559D01*
D02*
G37*
G36*
X155573Y218768D02*
X154664D01*
X153785Y218532D01*
X152998Y218078D01*
X152355Y217435D01*
X151901Y216648D01*
X151665Y215770D01*
Y214860D01*
X151901Y213982D01*
X152355Y213195D01*
X152998Y212552D01*
X153785Y212098D01*
X154664Y211862D01*
X155573D01*
X156451Y212098D01*
X157238Y212552D01*
X157881Y213195D01*
X158336Y213982D01*
X158571Y214860D01*
Y215770D01*
X158336Y216648D01*
X157881Y217435D01*
X157238Y218078D01*
X156451Y218532D01*
X155573Y218768D01*
D02*
G37*
G36*
X105573D02*
X104664D01*
X103785Y218532D01*
X102998Y218078D01*
X102355Y217435D01*
X101901Y216648D01*
X101665Y215770D01*
Y214860D01*
X101901Y213982D01*
X102355Y213195D01*
X102998Y212552D01*
X103785Y212098D01*
X104664Y211862D01*
X105573D01*
X106451Y212098D01*
X107238Y212552D01*
X107881Y213195D01*
X108336Y213982D01*
X108571Y214860D01*
Y215770D01*
X108336Y216648D01*
X107881Y217435D01*
X107238Y218078D01*
X106451Y218532D01*
X105573Y218768D01*
D02*
G37*
G36*
X118976Y214575D02*
X118425D01*
X117916Y214364D01*
X117526Y213974D01*
X117315Y213465D01*
Y212913D01*
X117526Y212404D01*
X117916Y212014D01*
X118425Y211803D01*
X118976D01*
X119486Y212014D01*
X119876Y212404D01*
X120087Y212913D01*
Y213465D01*
X119876Y213974D01*
X119486Y214364D01*
X118976Y214575D01*
D02*
G37*
G36*
X131772Y211622D02*
X131220D01*
X130711Y211411D01*
X130321Y211021D01*
X130290Y210946D01*
X129749D01*
X129718Y211021D01*
X129328Y211411D01*
X128819Y211622D01*
X128268D01*
X127758Y211411D01*
X127368Y211021D01*
X127157Y210512D01*
Y209961D01*
X127368Y209451D01*
X127758Y209061D01*
X128268Y208850D01*
X128819D01*
X129328Y209061D01*
X129718Y209451D01*
X129749Y209526D01*
X130290D01*
X130321Y209451D01*
X130711Y209061D01*
X131220Y208850D01*
X131772D01*
X132281Y209061D01*
X132671Y209451D01*
X132882Y209961D01*
Y210512D01*
X132671Y211021D01*
X132281Y211411D01*
X131772Y211622D01*
D02*
G37*
G36*
X141614Y212606D02*
X141063D01*
X140554Y212395D01*
X140164Y212005D01*
X139953Y211496D01*
Y210945D01*
X140164Y210436D01*
X140554Y210046D01*
X141063Y209835D01*
X141614D01*
X142124Y210046D01*
X142513Y210436D01*
X142724Y210945D01*
Y211496D01*
X142513Y212005D01*
X142124Y212395D01*
X141614Y212606D01*
D02*
G37*
G36*
X112087Y209653D02*
X111535D01*
X111026Y209443D01*
X110636Y209053D01*
X110425Y208543D01*
Y207992D01*
X110636Y207483D01*
X111026Y207093D01*
X111535Y206882D01*
X112087D01*
X112596Y207093D01*
X112986Y207483D01*
X113197Y207992D01*
Y208543D01*
X112986Y209053D01*
X112596Y209443D01*
X112087Y209653D01*
D02*
G37*
G36*
X155573Y208768D02*
X154664D01*
X153785Y208532D01*
X152998Y208078D01*
X152355Y207435D01*
X151901Y206648D01*
X151665Y205769D01*
Y204860D01*
X151901Y203982D01*
X152355Y203195D01*
X152998Y202552D01*
X153785Y202098D01*
X154664Y201862D01*
X155573D01*
X156451Y202098D01*
X157238Y202552D01*
X157881Y203195D01*
X158336Y203982D01*
X158571Y204860D01*
Y205769D01*
X158336Y206648D01*
X157881Y207435D01*
X157238Y208078D01*
X156451Y208532D01*
X155573Y208768D01*
D02*
G37*
G36*
X147323Y206271D02*
X146627Y206179D01*
X145979Y205911D01*
X145422Y205484D01*
X144995Y204927D01*
X144726Y204278D01*
X144634Y203583D01*
Y199646D01*
X144726Y198950D01*
X144995Y198301D01*
X145422Y197745D01*
X145979Y197318D01*
X146627Y197049D01*
X147323Y196957D01*
X148019Y197049D01*
X148667Y197318D01*
X149224Y197745D01*
X149651Y198301D01*
X149920Y198950D01*
X150011Y199646D01*
Y203583D01*
X149920Y204278D01*
X149651Y204927D01*
X149224Y205484D01*
X148667Y205911D01*
X148019Y206179D01*
X147323Y206271D01*
D02*
G37*
G36*
X155573Y198768D02*
X154664D01*
X153785Y198532D01*
X152998Y198078D01*
X152355Y197435D01*
X151901Y196648D01*
X151665Y195770D01*
Y194860D01*
X151901Y193982D01*
X152355Y193195D01*
X152998Y192552D01*
X153785Y192097D01*
X154664Y191862D01*
X155573D01*
X156451Y192097D01*
X157238Y192552D01*
X157881Y193195D01*
X158336Y193982D01*
X158571Y194860D01*
Y195770D01*
X158336Y196648D01*
X157881Y197435D01*
X157238Y198078D01*
X156451Y198532D01*
X155573Y198768D01*
D02*
G37*
G36*
X105573Y208768D02*
X104664D01*
X103785Y208532D01*
X102998Y208078D01*
X102355Y207435D01*
X101901Y206648D01*
X101665Y205769D01*
Y204860D01*
X101901Y203982D01*
X102355Y203195D01*
X102998Y202552D01*
X103785Y202098D01*
X104664Y201862D01*
X105573D01*
X106451Y202098D01*
X106829Y202316D01*
X108931Y200213D01*
Y198425D01*
X109001Y198076D01*
X109198Y197781D01*
X116001Y190978D01*
X115918Y190639D01*
X115808Y190478D01*
X111244D01*
X108117Y193604D01*
X108336Y193982D01*
X108571Y194860D01*
Y195770D01*
X108336Y196648D01*
X107881Y197435D01*
X107238Y198078D01*
X106451Y198532D01*
X105573Y198768D01*
X104664D01*
X103785Y198532D01*
X102998Y198078D01*
X102355Y197435D01*
X101901Y196648D01*
X101665Y195770D01*
Y194860D01*
X101901Y193982D01*
X102355Y193195D01*
X102998Y192552D01*
X103785Y192097D01*
X104664Y191862D01*
X105573D01*
X106451Y192097D01*
X106829Y192316D01*
X110222Y188923D01*
X110517Y188725D01*
X110866Y188656D01*
X119308D01*
X126657Y181307D01*
X126374Y180883D01*
X126063Y181011D01*
X125512D01*
X125002Y180800D01*
X124613Y180411D01*
X124086Y180445D01*
X124045Y180544D01*
X123655Y180934D01*
X123145Y181145D01*
X122594D01*
X122085Y180934D01*
X121695Y180544D01*
X121484Y180035D01*
Y179484D01*
X121695Y178974D01*
X122085Y178585D01*
X122184Y178543D01*
X122219Y178016D01*
X121829Y177627D01*
X121302Y177661D01*
X121261Y177761D01*
X120871Y178150D01*
X120361Y178361D01*
X119810D01*
X119301Y178150D01*
X118911Y177761D01*
X118700Y177251D01*
Y176700D01*
X118911Y176190D01*
X119301Y175801D01*
X119400Y175759D01*
X119435Y175233D01*
X119045Y174843D01*
X118518Y174877D01*
X118477Y174977D01*
X118087Y175366D01*
X117578Y175577D01*
X117026D01*
X116517Y175366D01*
X116127Y174977D01*
X115916Y174467D01*
Y173916D01*
X116127Y173407D01*
X116517Y173017D01*
X116616Y172976D01*
X116651Y172449D01*
X116261Y172059D01*
X115734Y172093D01*
X115693Y172193D01*
X115303Y172583D01*
X114794Y172793D01*
X114242D01*
X113733Y172583D01*
X113343Y172193D01*
X113132Y171683D01*
Y171132D01*
X113343Y170623D01*
X113733Y170233D01*
X114204Y170038D01*
X114296Y169845D01*
X114395Y169522D01*
X114120Y169246D01*
X113922Y168951D01*
X113853Y168602D01*
Y165025D01*
X113589Y164761D01*
X113378Y164252D01*
Y163701D01*
X113589Y163191D01*
X113979Y162802D01*
X114488Y162591D01*
X115039D01*
X115549Y162802D01*
X115939Y163191D01*
X116150Y163701D01*
Y164252D01*
X115939Y164761D01*
X115675Y165025D01*
Y168224D01*
X117339Y169888D01*
X117711D01*
X118221Y170099D01*
X118611Y170489D01*
X118822Y170998D01*
Y171549D01*
X118611Y172059D01*
X118221Y172449D01*
X118121Y172490D01*
X118087Y173017D01*
X118477Y173407D01*
X119004Y173372D01*
X119045Y173273D01*
X119435Y172883D01*
X119944Y172672D01*
X120495D01*
X121005Y172883D01*
X121395Y173273D01*
X121605Y173782D01*
Y174333D01*
X121395Y174843D01*
X121005Y175233D01*
X120905Y175274D01*
X120871Y175801D01*
X121261Y176190D01*
X121788Y176156D01*
X121829Y176057D01*
X122219Y175667D01*
X122728Y175456D01*
X123279D01*
X123788Y175667D01*
X124178Y176057D01*
X124389Y176566D01*
Y177117D01*
X124178Y177627D01*
X123788Y178016D01*
X123689Y178058D01*
X123655Y178585D01*
X124045Y178974D01*
X124571Y178940D01*
X124613Y178840D01*
X125002Y178451D01*
X125512Y178240D01*
X126063D01*
X126572Y178451D01*
X126962Y178840D01*
X127173Y179350D01*
Y179901D01*
X127045Y180212D01*
X127469Y180495D01*
X132553Y175410D01*
Y166679D01*
X132160Y166556D01*
X132053Y166550D01*
X131490Y167113D01*
X130728Y167429D01*
X129902D01*
X129140Y167113D01*
X128556Y166530D01*
X128240Y165767D01*
Y164942D01*
X128556Y164179D01*
X129140Y163595D01*
X129902Y163279D01*
X130728D01*
X131490Y163595D01*
X132053Y164158D01*
X132160Y164152D01*
X132553Y164030D01*
Y161922D01*
X124851Y154220D01*
X124295Y154370D01*
X124178Y154652D01*
X123788Y155042D01*
X123279Y155253D01*
X122728D01*
X122219Y155042D01*
X121829Y154652D01*
X121788Y154553D01*
X121261Y154518D01*
X120871Y154908D01*
X120905Y155435D01*
X121005Y155476D01*
X121395Y155866D01*
X121605Y156375D01*
Y156927D01*
X121395Y157436D01*
X121005Y157826D01*
X120495Y158037D01*
X119944D01*
X119435Y157826D01*
X119045Y157436D01*
X119004Y157336D01*
X118477Y157302D01*
X118087Y157692D01*
X118121Y158219D01*
X118221Y158260D01*
X118611Y158650D01*
X118822Y159159D01*
Y159711D01*
X118611Y160220D01*
X118221Y160610D01*
X117711Y160821D01*
X117160D01*
X116651Y160610D01*
X116261Y160220D01*
X116220Y160120D01*
X115693Y160086D01*
X115303Y160476D01*
X114794Y160687D01*
X114242D01*
X113733Y160476D01*
X113343Y160086D01*
X113132Y159577D01*
X112632Y159375D01*
X112041Y159966D01*
Y167462D01*
X111972Y167811D01*
X111774Y168107D01*
X110680Y169201D01*
Y176846D01*
X110610Y177194D01*
X110413Y177490D01*
X106350Y181553D01*
X106444Y182062D01*
X106490Y182120D01*
X107238Y182552D01*
X107881Y183195D01*
X108336Y183982D01*
X108571Y184860D01*
Y185769D01*
X108336Y186648D01*
X107881Y187435D01*
X107238Y188078D01*
X106451Y188532D01*
X105573Y188768D01*
X104664D01*
X103785Y188532D01*
X102998Y188078D01*
X102355Y187435D01*
X101901Y186648D01*
X101665Y185769D01*
Y184860D01*
X101901Y183982D01*
X102355Y183195D01*
X102998Y182552D01*
X103785Y182097D01*
X104207Y181985D01*
Y181496D01*
X104276Y181147D01*
X104474Y180852D01*
X106211Y179114D01*
X105953Y178666D01*
X105573Y178768D01*
X104664D01*
X103785Y178532D01*
X102998Y178078D01*
X102355Y177435D01*
X101901Y176648D01*
X101665Y175769D01*
Y174860D01*
X101901Y173982D01*
X102355Y173195D01*
X102998Y172552D01*
X103785Y172098D01*
X104207Y171985D01*
Y171653D01*
X104276Y171305D01*
X104474Y171009D01*
X106426Y169057D01*
X106168Y168608D01*
X105573Y168768D01*
X104664D01*
X103785Y168532D01*
X102998Y168078D01*
X102355Y167435D01*
X101901Y166648D01*
X101665Y165770D01*
Y164860D01*
X101901Y163982D01*
X102355Y163195D01*
X102998Y162552D01*
X103785Y162098D01*
X104010Y162037D01*
Y162008D01*
X104079Y161659D01*
X104277Y161364D01*
X106504Y159136D01*
X106489Y159040D01*
X105923Y158674D01*
X105573Y158768D01*
X104664D01*
X103785Y158532D01*
X102998Y158078D01*
X102355Y157435D01*
X101901Y156648D01*
X101665Y155770D01*
Y154860D01*
X101901Y153982D01*
X102355Y153195D01*
X102998Y152552D01*
X103785Y152097D01*
X104207Y151985D01*
Y151969D01*
X104276Y151620D01*
X104474Y151324D01*
X107012Y148785D01*
X106705Y148385D01*
X106451Y148532D01*
X105573Y148768D01*
X104664D01*
X103785Y148532D01*
X102998Y148078D01*
X102355Y147435D01*
X101901Y146648D01*
X101665Y145770D01*
Y144860D01*
X101901Y143982D01*
X102355Y143195D01*
X102998Y142552D01*
X103785Y142097D01*
X104664Y141862D01*
X105573D01*
X106451Y142097D01*
X106829Y142316D01*
X108931Y140213D01*
Y136356D01*
X108431Y136290D01*
X108336Y136648D01*
X107881Y137435D01*
X107238Y138078D01*
X106451Y138532D01*
X105573Y138768D01*
X104664D01*
X103785Y138532D01*
X102998Y138078D01*
X102355Y137435D01*
X101901Y136648D01*
X101665Y135769D01*
Y134860D01*
X101901Y133982D01*
X102355Y133195D01*
X102998Y132552D01*
X103785Y132097D01*
X104664Y131862D01*
X105573D01*
X106451Y132097D01*
X106779Y132287D01*
X113902Y125164D01*
X113580Y124797D01*
X113071Y125008D01*
X112520D01*
X112010Y124797D01*
X111620Y124407D01*
X111409Y123898D01*
Y123346D01*
X111620Y122837D01*
X112010Y122447D01*
X112520Y122236D01*
X113071D01*
X113580Y122447D01*
X113970Y122837D01*
X114181Y123346D01*
Y123898D01*
X113970Y124407D01*
X114337Y124729D01*
X115821Y123245D01*
Y110349D01*
X115359Y110158D01*
X110754Y114763D01*
Y117717D01*
X110684Y118065D01*
X110487Y118361D01*
X106931Y121917D01*
X106996Y122412D01*
X107238Y122552D01*
X107881Y123195D01*
X108336Y123982D01*
X108571Y124860D01*
Y125769D01*
X108336Y126648D01*
X107881Y127435D01*
X107238Y128078D01*
X106451Y128532D01*
X105573Y128768D01*
X104664D01*
X103785Y128532D01*
X102998Y128078D01*
X102355Y127435D01*
X101901Y126648D01*
X101665Y125769D01*
Y124860D01*
X101901Y123982D01*
X102355Y123195D01*
X102998Y122552D01*
X103785Y122098D01*
X104379Y121938D01*
X104474Y121797D01*
X108931Y117339D01*
Y116356D01*
X108431Y116290D01*
X108336Y116648D01*
X107881Y117435D01*
X107238Y118078D01*
X106451Y118532D01*
X105573Y118768D01*
X104664D01*
X103785Y118532D01*
X102998Y118078D01*
X102355Y117435D01*
X101901Y116648D01*
X101665Y115770D01*
Y114860D01*
X101901Y113982D01*
X102355Y113195D01*
X102998Y112552D01*
X103785Y112098D01*
X104530Y111898D01*
X112102Y104326D01*
X111911Y103864D01*
X109018D01*
X108635Y104364D01*
X108768Y104860D01*
Y105770D01*
X108532Y106648D01*
X108078Y107435D01*
X107435Y108078D01*
X106648Y108532D01*
X105770Y108768D01*
X104860D01*
X103982Y108532D01*
X103195Y108078D01*
X102552Y107435D01*
X102097Y106648D01*
X101862Y105770D01*
Y104860D01*
X102097Y103982D01*
X102552Y103195D01*
X103195Y102552D01*
X103982Y102097D01*
X104860Y101862D01*
X105770D01*
X106648Y102097D01*
X107026Y102316D01*
X107033Y102308D01*
X107328Y102111D01*
X107677Y102041D01*
X148228D01*
X148577Y102111D01*
X148873Y102308D01*
X151381Y104816D01*
X151416Y104820D01*
X151919Y104648D01*
X152097Y103982D01*
X152552Y103195D01*
X153195Y102552D01*
X153982Y102097D01*
X154860Y101862D01*
X155770D01*
X156648Y102097D01*
X157435Y102552D01*
X158078Y103195D01*
X158532Y103982D01*
X158768Y104860D01*
Y105770D01*
X158532Y106648D01*
X158078Y107435D01*
X157435Y108078D01*
X156648Y108532D01*
X155770Y108768D01*
X154860D01*
X153982Y108532D01*
X153195Y108078D01*
X152592Y107475D01*
X152416Y107495D01*
X152092Y107639D01*
Y112751D01*
X152592Y112958D01*
X152998Y112552D01*
X153785Y112098D01*
X154664Y111862D01*
X155573D01*
X156451Y112098D01*
X157238Y112552D01*
X157881Y113195D01*
X158336Y113982D01*
X158571Y114860D01*
Y115770D01*
X158336Y116648D01*
X157881Y117435D01*
X157238Y118078D01*
X156451Y118532D01*
X155573Y118768D01*
X154664D01*
X153785Y118532D01*
X152998Y118078D01*
X152592Y117672D01*
X152092Y117879D01*
Y122751D01*
X152592Y122958D01*
X152998Y122552D01*
X153785Y122098D01*
X154664Y121862D01*
X155573D01*
X156451Y122098D01*
X157238Y122552D01*
X157881Y123195D01*
X158336Y123982D01*
X158571Y124860D01*
Y125769D01*
X158336Y126648D01*
X157881Y127435D01*
X157238Y128078D01*
X156451Y128532D01*
X155573Y128768D01*
X154664D01*
X153785Y128532D01*
X152998Y128078D01*
X152592Y127672D01*
X152092Y127879D01*
Y132751D01*
X152592Y132958D01*
X152998Y132552D01*
X153785Y132097D01*
X154664Y131862D01*
X155573D01*
X156451Y132097D01*
X157238Y132552D01*
X157881Y133195D01*
X158336Y133982D01*
X158571Y134860D01*
Y135769D01*
X158336Y136648D01*
X157881Y137435D01*
X157238Y138078D01*
X156451Y138532D01*
X155573Y138768D01*
X154664D01*
X153785Y138532D01*
X152998Y138078D01*
X152592Y137672D01*
X152092Y137879D01*
Y142751D01*
X152592Y142958D01*
X152998Y142552D01*
X153785Y142097D01*
X154664Y141862D01*
X155573D01*
X156451Y142097D01*
X157238Y142552D01*
X157881Y143195D01*
X158336Y143982D01*
X158571Y144860D01*
Y145770D01*
X158336Y146648D01*
X157881Y147435D01*
X157238Y148078D01*
X156451Y148532D01*
X155573Y148768D01*
X154664D01*
X153785Y148532D01*
X152998Y148078D01*
X152592Y147672D01*
X152092Y147879D01*
Y152751D01*
X152592Y152958D01*
X152998Y152552D01*
X153785Y152097D01*
X154664Y151862D01*
X155573D01*
X156451Y152097D01*
X157238Y152552D01*
X157881Y153195D01*
X158336Y153982D01*
X158571Y154860D01*
Y155770D01*
X158336Y156648D01*
X157881Y157435D01*
X157238Y158078D01*
X156451Y158532D01*
X155573Y158768D01*
X154664D01*
X153785Y158532D01*
X152998Y158078D01*
X152592Y157672D01*
X152092Y157879D01*
Y162751D01*
X152592Y162958D01*
X152998Y162552D01*
X153785Y162098D01*
X154664Y161862D01*
X155573D01*
X156451Y162098D01*
X157238Y162552D01*
X157881Y163195D01*
X158336Y163982D01*
X158571Y164860D01*
Y165770D01*
X158336Y166648D01*
X157881Y167435D01*
X157238Y168078D01*
X156451Y168532D01*
X155573Y168768D01*
X154664D01*
X153785Y168532D01*
X152998Y168078D01*
X152592Y167672D01*
X152092Y167879D01*
Y172751D01*
X152592Y172958D01*
X152998Y172552D01*
X153785Y172098D01*
X154664Y171862D01*
X155573D01*
X156451Y172098D01*
X157238Y172552D01*
X157881Y173195D01*
X158336Y173982D01*
X158571Y174860D01*
Y175769D01*
X158336Y176648D01*
X157881Y177435D01*
X157238Y178078D01*
X156451Y178532D01*
X155573Y178768D01*
X154664D01*
X153785Y178532D01*
X152998Y178078D01*
X152355Y177435D01*
X151901Y176648D01*
X151781Y176199D01*
X151223Y176050D01*
X148873Y178400D01*
X148577Y178598D01*
X148228Y178667D01*
X144231D01*
X144051Y178965D01*
X144014Y179157D01*
X144936Y180078D01*
X145133Y180374D01*
X145203Y180723D01*
Y181121D01*
X145703Y181408D01*
X145984Y181291D01*
X146536D01*
X147045Y181502D01*
X147435Y181892D01*
X147646Y182402D01*
Y182953D01*
X147435Y183462D01*
X147045Y183852D01*
X146536Y184063D01*
X145984D01*
X145475Y183852D01*
X145274Y183651D01*
X145081Y183464D01*
X144617Y183640D01*
X134326Y193931D01*
X134648Y194298D01*
X135157Y194087D01*
X135709D01*
X136218Y194298D01*
X136608Y194687D01*
X136819Y195197D01*
Y195748D01*
X136608Y196257D01*
X136218Y196647D01*
X135709Y196858D01*
X135157D01*
X134648Y196647D01*
X134258Y196257D01*
X134047Y195748D01*
Y195197D01*
X134258Y194687D01*
X133891Y194366D01*
X131156Y197101D01*
X130860Y197299D01*
X130512Y197368D01*
X129592D01*
X129328Y197632D01*
X128819Y197843D01*
X128268D01*
X127758Y197632D01*
X127368Y197242D01*
X127157Y196732D01*
Y196288D01*
X126981Y196050D01*
X126743Y195874D01*
X126299D01*
X125790Y195663D01*
X125400Y195273D01*
X125189Y194764D01*
Y194212D01*
X125400Y193703D01*
X125790Y193313D01*
X126299Y193102D01*
X126743D01*
X126981Y192926D01*
X127157Y192688D01*
Y192244D01*
X127368Y191735D01*
X127758Y191345D01*
X128268Y191134D01*
X128712D01*
X128950Y190958D01*
X129126Y190720D01*
Y190276D01*
X129337Y189766D01*
X129727Y189376D01*
X130236Y189165D01*
X130788D01*
X131297Y189376D01*
X131687Y189766D01*
X131898Y190276D01*
Y190827D01*
X131687Y191336D01*
X131297Y191726D01*
X130788Y191937D01*
X130579D01*
X130268Y192406D01*
X130372Y192593D01*
X131266D01*
X141412Y182448D01*
Y181915D01*
X139608Y180112D01*
X139052Y180263D01*
X138935Y180544D01*
X138545Y180934D01*
X138036Y181145D01*
X137485D01*
X136975Y180934D01*
X136585Y180544D01*
X136544Y180445D01*
X136017Y180411D01*
X135627Y180800D01*
X135118Y181011D01*
X134567D01*
X134057Y180800D01*
X133668Y180411D01*
X133457Y179901D01*
Y179350D01*
X133668Y178840D01*
X134057Y178451D01*
X134567Y178240D01*
X135118D01*
X135627Y178451D01*
X136017Y178840D01*
X136058Y178940D01*
X136585Y178974D01*
X136975Y178585D01*
X136941Y178058D01*
X136841Y178016D01*
X136451Y177627D01*
X136241Y177117D01*
Y176566D01*
X136451Y176057D01*
X136841Y175667D01*
X137351Y175456D01*
X137902D01*
X138411Y175667D01*
X138801Y176057D01*
X138842Y176156D01*
X139369Y176190D01*
X139759Y175801D01*
X139725Y175274D01*
X139625Y175233D01*
X139235Y174843D01*
X139024Y174333D01*
Y173782D01*
X139235Y173273D01*
X139625Y172883D01*
X140135Y172672D01*
X140686D01*
X141195Y172883D01*
X141585Y173273D01*
X141626Y173372D01*
X142153Y173407D01*
X142543Y173017D01*
X142509Y172490D01*
X142409Y172449D01*
X142019Y172059D01*
X141808Y171549D01*
Y170998D01*
X142019Y170489D01*
X142409Y170099D01*
X142919Y169888D01*
X143470D01*
X143979Y170099D01*
X144369Y170489D01*
X144410Y170588D01*
X144937Y170623D01*
X145327Y170233D01*
X145836Y170022D01*
X146388D01*
X146897Y170233D01*
X147195Y170531D01*
X147626Y170419D01*
X147695Y170378D01*
Y160331D01*
X147626Y160289D01*
X147195Y160178D01*
X146897Y160476D01*
X146388Y160687D01*
X145836D01*
X145327Y160476D01*
X144937Y160086D01*
X144410Y160120D01*
X144369Y160220D01*
X143979Y160610D01*
X143470Y160821D01*
X142919D01*
X142409Y160610D01*
X142019Y160220D01*
X141808Y159711D01*
Y159159D01*
X142019Y158650D01*
X142409Y158260D01*
X142509Y158219D01*
X142543Y157692D01*
X142153Y157302D01*
X141626Y157336D01*
X141585Y157436D01*
X141195Y157826D01*
X140686Y158037D01*
X140135D01*
X139625Y157826D01*
X139235Y157436D01*
X139024Y156927D01*
Y156375D01*
X139235Y155866D01*
X139625Y155476D01*
X139725Y155435D01*
X139759Y154908D01*
X139369Y154518D01*
X138842Y154553D01*
X138801Y154652D01*
X138411Y155042D01*
X137902Y155253D01*
X137351D01*
X136841Y155042D01*
X136451Y154652D01*
X136241Y154143D01*
Y153591D01*
X136451Y153082D01*
X136841Y152692D01*
X136941Y152651D01*
X136975Y152124D01*
X136585Y151734D01*
X136058Y151769D01*
X136017Y151868D01*
X135627Y152258D01*
X135118Y152469D01*
X134567D01*
X134057Y152258D01*
X133668Y151868D01*
X133457Y151359D01*
Y150807D01*
X133668Y150298D01*
X133931Y150034D01*
Y147031D01*
X132103Y145203D01*
X126475D01*
X126284Y145665D01*
X126432Y145812D01*
X126629Y146108D01*
X126699Y146457D01*
Y150034D01*
X126962Y150298D01*
X127173Y150807D01*
Y151359D01*
X126962Y151868D01*
X126572Y152258D01*
X126291Y152375D01*
X126140Y152931D01*
X134109Y160900D01*
X134306Y161196D01*
X134376Y161544D01*
Y175787D01*
X134306Y176136D01*
X134109Y176432D01*
X128421Y182120D01*
X128743Y182487D01*
X129252Y182276D01*
X129803D01*
X130313Y182487D01*
X130702Y182876D01*
X130913Y183386D01*
Y183937D01*
X130702Y184446D01*
X130420Y184728D01*
X130572Y185227D01*
X130574Y185228D01*
X130591D01*
X131100Y185439D01*
X131490Y185829D01*
X131701Y186338D01*
Y186890D01*
X131490Y187399D01*
X131100Y187789D01*
X130591Y188000D01*
X130039D01*
X129530Y187789D01*
X129140Y187399D01*
X128929Y186890D01*
Y186338D01*
X128988Y186197D01*
X128564Y185914D01*
X122298Y192180D01*
X122002Y192377D01*
X121653Y192447D01*
X117110D01*
X113073Y196484D01*
X113306Y196957D01*
X113307Y196957D01*
X114003Y197049D01*
X114651Y197318D01*
X115208Y197745D01*
X115635Y198301D01*
X115904Y198950D01*
X115995Y199646D01*
Y203583D01*
X115904Y204278D01*
X115635Y204927D01*
X115208Y205484D01*
X114651Y205911D01*
X114003Y206179D01*
X113307Y206271D01*
X112611Y206179D01*
X111963Y205911D01*
X111406Y205484D01*
X110979Y204927D01*
X110710Y204278D01*
X110619Y203583D01*
Y201810D01*
X110119Y201603D01*
X108117Y203604D01*
X108336Y203982D01*
X108571Y204860D01*
Y205769D01*
X108336Y206648D01*
X107881Y207435D01*
X107238Y208078D01*
X106451Y208532D01*
X105573Y208768D01*
D02*
G37*
G36*
X134724Y185047D02*
X134173D01*
X133664Y184836D01*
X133274Y184446D01*
X133063Y183937D01*
Y183386D01*
X133274Y182876D01*
X133664Y182487D01*
X134173Y182276D01*
X134724D01*
X135234Y182487D01*
X135624Y182876D01*
X135835Y183386D01*
Y183937D01*
X135624Y184446D01*
X135234Y184836D01*
X134724Y185047D01*
D02*
G37*
G36*
X155573Y188768D02*
X154664D01*
X153785Y188532D01*
X152998Y188078D01*
X152355Y187435D01*
X151901Y186648D01*
X151665Y185769D01*
Y184860D01*
X151901Y183982D01*
X152355Y183195D01*
X152998Y182552D01*
X153785Y182097D01*
X154664Y181862D01*
X155573D01*
X156451Y182097D01*
X157238Y182552D01*
X157881Y183195D01*
X158336Y183982D01*
X158571Y184860D01*
Y185769D01*
X158336Y186648D01*
X157881Y187435D01*
X157238Y188078D01*
X156451Y188532D01*
X155573Y188768D01*
D02*
G37*
G36*
X149488Y182095D02*
X148937D01*
X148428Y181884D01*
X148038Y181494D01*
X147827Y180984D01*
Y180433D01*
X148038Y179924D01*
X148428Y179534D01*
X148937Y179323D01*
X149488D01*
X149998Y179534D01*
X150387Y179924D01*
X150598Y180433D01*
Y180984D01*
X150387Y181494D01*
X149998Y181884D01*
X149488Y182095D01*
D02*
G37*
%LPD*%
G36*
X116651Y158260D02*
X116616Y157733D01*
X116517Y157692D01*
X116127Y157302D01*
X115916Y156793D01*
Y156241D01*
X116127Y155732D01*
X116517Y155342D01*
X117026Y155131D01*
X117578D01*
X118087Y155342D01*
X118477Y155732D01*
X118518Y155832D01*
X119045Y155866D01*
X119435Y155476D01*
X119400Y154949D01*
X119301Y154908D01*
X118911Y154518D01*
X118700Y154009D01*
Y153457D01*
X118911Y152948D01*
X119301Y152558D01*
X119810Y152347D01*
X120361D01*
X120871Y152558D01*
X121261Y152948D01*
X121302Y153048D01*
X121829Y153082D01*
X122219Y152692D01*
X122184Y152165D01*
X122085Y152124D01*
X121695Y151734D01*
X121484Y151225D01*
Y150674D01*
X121695Y150164D01*
X122085Y149774D01*
X122594Y149564D01*
X123145D01*
X123655Y149774D01*
X124045Y150164D01*
X124548Y150227D01*
X124876Y149913D01*
Y146834D01*
X124532Y146490D01*
X122564D01*
X117910Y151144D01*
X117614Y151342D01*
X117552Y151354D01*
X113329Y155578D01*
Y157823D01*
X113492Y157946D01*
X113829Y158087D01*
X114242Y157915D01*
X114794D01*
X115303Y158126D01*
X115693Y158516D01*
X115734Y158615D01*
X116261Y158650D01*
X116651Y158260D01*
D02*
G37*
G36*
X136585Y150164D02*
X136849Y149901D01*
Y145901D01*
X136918Y145552D01*
X137116Y145257D01*
X138912Y143461D01*
Y137688D01*
X138981Y137339D01*
X139179Y137044D01*
X142545Y133677D01*
Y115297D01*
X135680D01*
X135473Y115797D01*
X135624Y115947D01*
X135835Y116457D01*
Y117008D01*
X135624Y117517D01*
X135234Y117907D01*
X134724Y118118D01*
X134173D01*
X133664Y117907D01*
X133274Y117517D01*
X133063Y117008D01*
Y116457D01*
X133274Y115947D01*
X133424Y115797D01*
X133217Y115297D01*
X131956D01*
X118628Y128625D01*
Y145375D01*
X119090Y145567D01*
X121009Y143647D01*
X121305Y143449D01*
X121653Y143380D01*
X132480D01*
X132829Y143449D01*
X133125Y143647D01*
X135487Y146009D01*
X135684Y146305D01*
X135754Y146653D01*
Y149913D01*
X136082Y150227D01*
X136585Y150164D01*
D02*
G37*
G36*
X116805Y145882D02*
Y129280D01*
X116343Y129089D01*
X112722Y132710D01*
Y145276D01*
X112653Y145624D01*
X112455Y145920D01*
X111048Y147327D01*
X111068Y147512D01*
X111211Y147872D01*
X111612Y148038D01*
X112002Y148428D01*
X112213Y148937D01*
Y149488D01*
X112002Y149998D01*
X112368Y150319D01*
X116805Y145882D01*
D02*
G37*
G36*
X128322Y112713D02*
X128302Y112528D01*
X128159Y112168D01*
X127758Y112002D01*
X127368Y111612D01*
X127157Y111102D01*
Y110551D01*
X127368Y110042D01*
X127758Y109652D01*
X128268Y109441D01*
X128819D01*
X129328Y109652D01*
X129718Y110042D01*
X129927Y110545D01*
X129948Y110583D01*
X130429Y110916D01*
X130512Y110900D01*
X144291D01*
X144640Y110969D01*
X144936Y111167D01*
X145946Y112177D01*
X146408Y111985D01*
Y107883D01*
X146251Y107726D01*
X141835D01*
X141593Y108226D01*
X141740Y108583D01*
Y109134D01*
X141529Y109643D01*
X141139Y110033D01*
X140630Y110244D01*
X140079D01*
X139569Y110033D01*
X139180Y109643D01*
X138969Y109134D01*
Y108583D01*
X139116Y108226D01*
X138873Y107726D01*
X122150D01*
X121907Y108226D01*
X122055Y108583D01*
Y109134D01*
X121844Y109643D01*
X121454Y110033D01*
X120945Y110244D01*
X120394D01*
X119884Y110033D01*
X119494Y109643D01*
X119283Y109134D01*
Y108761D01*
X118804Y108534D01*
X117643Y109694D01*
Y115176D01*
X118143Y115463D01*
X118425Y115347D01*
X118976D01*
X119486Y115557D01*
X119876Y115947D01*
X120087Y116457D01*
Y117008D01*
X119876Y117517D01*
X119486Y117907D01*
X118976Y118118D01*
X118425D01*
X118143Y118001D01*
X117643Y118288D01*
Y122737D01*
X118105Y122929D01*
X128322Y112713D01*
D02*
G37*
%LPC*%
G36*
X130529Y136093D02*
X129978D01*
X129468Y135882D01*
X129078Y135492D01*
X128867Y134983D01*
Y134432D01*
X129078Y133922D01*
X129468Y133533D01*
X129978Y133322D01*
X130529D01*
X131038Y133533D01*
X131428Y133922D01*
X131639Y134432D01*
Y134983D01*
X131428Y135492D01*
X131038Y135882D01*
X130529Y136093D01*
D02*
G37*
G36*
X128819Y132882D02*
X128268D01*
X127758Y132671D01*
X127368Y132281D01*
X127157Y131772D01*
Y131220D01*
X127368Y130711D01*
X127758Y130321D01*
X128268Y130110D01*
X128819D01*
X129328Y130321D01*
X129718Y130711D01*
X129929Y131220D01*
Y131772D01*
X129718Y132281D01*
X129328Y132671D01*
X128819Y132882D01*
D02*
G37*
G36*
X125866Y128945D02*
X125315D01*
X124805Y128734D01*
X124416Y128344D01*
X124205Y127835D01*
Y127283D01*
X124416Y126774D01*
X124805Y126384D01*
X125315Y126173D01*
X125866D01*
X126375Y126384D01*
X126765Y126774D01*
X126976Y127283D01*
Y127835D01*
X126765Y128344D01*
X126375Y128734D01*
X125866Y128945D01*
D02*
G37*
G36*
X115039Y143709D02*
X114488D01*
X113979Y143498D01*
X113589Y143108D01*
X113378Y142598D01*
Y142047D01*
X113589Y141538D01*
X113979Y141148D01*
X114488Y140937D01*
X115039D01*
X115549Y141148D01*
X115939Y141538D01*
X116150Y142047D01*
Y142598D01*
X115939Y143108D01*
X115549Y143498D01*
X115039Y143709D01*
D02*
G37*
%LPD*%
D12*
X143328Y174192D02*
X145605Y176469D01*
X114764Y163976D02*
Y168602D01*
X117436Y171274D01*
X131644Y193504D02*
X142323Y182825D01*
Y181538D02*
Y182825D01*
X137626Y176842D02*
X142323Y181538D01*
X129528Y193504D02*
X131644D01*
X128543Y192520D02*
X129528Y193504D01*
X128543Y196457D02*
X130512D01*
X144291Y182677D01*
Y180723D02*
Y182677D01*
X140544Y176976D02*
X144291Y180723D01*
X110866Y189567D02*
X119685D01*
X133465Y175787D01*
Y161544D02*
Y175787D01*
X121653Y191535D02*
X129527Y183661D01*
X105118Y195315D02*
X110866Y189567D01*
X122870Y150949D02*
X133465Y161544D01*
X105118Y181496D02*
Y185315D01*
Y181496D02*
X109769Y176846D01*
Y168824D02*
Y176846D01*
Y168824D02*
X111130Y167462D01*
Y159588D02*
Y167462D01*
Y159588D02*
X112417Y158301D01*
Y155200D02*
Y158301D01*
Y155200D02*
X117118Y150500D01*
X117265D01*
X116732Y149213D02*
X121653Y144291D01*
X117717Y128248D02*
Y146260D01*
X109843Y154134D02*
X117717Y146260D01*
X121653Y144291D02*
X132480D01*
X117265Y150500D02*
X122187Y145579D01*
X124909D01*
X125787Y146457D01*
Y151083D01*
X105118Y171653D02*
Y175315D01*
Y171653D02*
X109843Y166929D01*
Y159055D02*
Y166929D01*
Y159055D02*
X111130Y157768D01*
Y154667D02*
Y157768D01*
Y154667D02*
X116584Y149213D01*
X116732D01*
X132480Y144291D02*
X134843Y146653D01*
Y151083D01*
X104921Y165118D02*
X105118Y165315D01*
X104921Y162008D02*
Y165118D01*
Y162008D02*
X109843Y157087D01*
Y154134D02*
Y157087D01*
X117717Y128248D02*
X131578Y114386D01*
X111811Y132333D02*
Y145276D01*
Y132333D02*
X131045Y113098D01*
X131578Y114386D02*
X142929D01*
X143457Y114913D01*
Y134054D01*
X139823Y137688D02*
X143457Y134054D01*
X139823Y137688D02*
Y143839D01*
X137760Y145901D02*
X139823Y143839D01*
X137760Y145901D02*
Y150949D01*
X105118Y151969D02*
Y155315D01*
Y151969D02*
X111811Y145276D01*
X131045Y113098D02*
X143610D01*
X144744Y114232D01*
Y134588D01*
X141110Y138221D02*
X144744Y134588D01*
X141110Y138221D02*
Y144456D01*
X143685Y147031D01*
Y147808D01*
X137626Y153867D02*
X143685Y147808D01*
X109843Y132480D02*
X130512Y111811D01*
X105118Y145315D02*
X109843Y140591D01*
Y132480D02*
Y140591D01*
X144291Y111811D02*
X146031Y113551D01*
Y135121D01*
X130512Y111811D02*
X144291D01*
X142398Y138755D02*
X146031Y135121D01*
X143685Y139288D02*
X147319Y135654D01*
X144972Y139821D02*
X148606Y136187D01*
X148228Y138386D02*
X149894Y136721D01*
X148228Y138386D02*
X148228D01*
X146260Y140354D02*
X148228Y138386D01*
X147319Y107505D02*
Y135654D01*
X148606Y106972D02*
Y136187D01*
X149894Y106439D02*
Y136721D01*
X146260Y140354D02*
Y142323D01*
X151181Y105905D02*
Y174803D01*
X148228Y102953D02*
X151181Y105905D01*
X148228Y177756D02*
X151181Y174803D01*
X147695Y104240D02*
X149894Y106439D01*
X147162Y105528D02*
X148606Y106972D01*
X119234Y106815D02*
X146629D01*
X147319Y107505D01*
X118701Y105528D02*
X147162D01*
X113476Y104240D02*
X147695D01*
X107677Y102953D02*
X148228D01*
X116732Y109317D02*
X119234Y106815D01*
X109843Y114386D02*
X118701Y105528D01*
X105118Y112598D02*
X113476Y104240D01*
X105315Y105315D02*
X107677Y102953D01*
X142398Y138755D02*
Y143923D01*
X144972Y146497D01*
Y149305D01*
X140544Y153733D02*
X144972Y149305D01*
X105118Y135236D02*
Y135315D01*
Y135236D02*
X116732Y123622D01*
Y109317D02*
Y123622D01*
X143685Y139288D02*
Y143389D01*
X146260Y145964D01*
Y150801D01*
X140410Y156651D02*
X146260Y150801D01*
X105118Y122441D02*
Y125315D01*
Y122441D02*
X109843Y117717D01*
Y114386D02*
Y117717D01*
X144972Y139821D02*
Y142856D01*
X148606Y146490D01*
X146260Y142323D02*
X149894Y145957D01*
Y174270D01*
X148606Y146490D02*
Y173441D01*
X147244Y174803D02*
X148606Y173441D01*
X146723Y174803D02*
X147244D01*
X143194Y171274D02*
X146723Y174803D01*
X105118Y112598D02*
Y115315D01*
X147695Y176469D02*
X149894Y174270D01*
X145605Y176469D02*
X147695D01*
X144108Y177756D02*
X148228D01*
X140410Y174058D02*
X144108Y177756D01*
X109843Y198425D02*
Y200591D01*
X105118Y205315D02*
X109843Y200591D01*
Y198425D02*
X116732Y191535D01*
X121653D01*
D56*
X105118Y115315D02*
D03*
X105315Y105315D02*
D03*
X105118Y205315D02*
D03*
Y195315D02*
D03*
Y185315D02*
D03*
Y175315D02*
D03*
Y165315D02*
D03*
Y155315D02*
D03*
Y145315D02*
D03*
Y135315D02*
D03*
Y125315D02*
D03*
D57*
X143328Y174192D02*
D03*
X114764Y163976D02*
D03*
X128543Y196457D02*
D03*
Y192520D02*
D03*
X129527Y183661D02*
D03*
X143194Y171274D02*
D03*
X122870Y150949D02*
D03*
X137760D02*
D03*
X140410Y156651D02*
D03*
X137626Y153867D02*
D03*
X140544Y153733D02*
D03*
X125787Y151083D02*
D03*
X134843D02*
D03*
X137626Y176842D02*
D03*
X140410Y174058D02*
D03*
X140544Y176976D02*
D03*
X117436Y171274D02*
D03*
M02*
