G04*
G04 #@! TF.GenerationSoftware,Altium Limited,CircuitMaker,2.2.1 (2.2.1.6)*
G04*
G04 Layer_Physical_Order=5*
G04 Layer_Color=553216*
%FSLAX25Y25*%
%MOIN*%
G70*
G04*
G04 #@! TF.SameCoordinates,FB4DA932-24D3-4F87-B050-2CA4388B978A*
G04*
G04*
G04 #@! TF.FilePolarity,Negative*
G04*
G01*
G75*
%ADD12C,0.00787*%
%ADD59C,0.04000*%
%ADD60C,0.07543*%
%ADD61C,0.04787*%
%ADD62C,0.01968*%
%ADD63O,0.06362X0.10299*%
%ADD64O,0.06362X0.12268*%
%ADD65C,0.05575*%
D12*
X117913Y230709D02*
X118110Y210236D01*
X100000D02*
X118110D01*
D59*
X156693Y100000D02*
G03*
X160630Y103937I0J3937D01*
G01*
Y226772D02*
G03*
X156693Y230709I-3937J0D01*
G01*
X103937D02*
G03*
X100000Y226772I0J-3937D01*
G01*
Y103937D02*
G03*
X103937Y100000I3937J0D01*
G01*
X156693D01*
X100000Y103937D02*
Y226772D01*
X103937Y230709D02*
X156693D01*
X160630Y103937D02*
Y226772D01*
D60*
X105118Y115315D02*
D03*
X105315Y105315D02*
D03*
X155315D02*
D03*
X155118Y115315D02*
D03*
Y125315D02*
D03*
Y135315D02*
D03*
Y145315D02*
D03*
Y155315D02*
D03*
Y165315D02*
D03*
Y175315D02*
D03*
Y185315D02*
D03*
Y195315D02*
D03*
Y205315D02*
D03*
Y215315D02*
D03*
Y225315D02*
D03*
X105118D02*
D03*
Y205315D02*
D03*
Y195315D02*
D03*
Y185315D02*
D03*
Y175315D02*
D03*
Y165315D02*
D03*
Y155315D02*
D03*
Y145315D02*
D03*
Y135315D02*
D03*
Y125315D02*
D03*
D61*
X120669Y108858D02*
D03*
X118701Y116732D02*
D03*
X111811Y208268D02*
D03*
X149213Y180709D02*
D03*
X143328Y174192D02*
D03*
X134449Y116732D02*
D03*
X110827Y109843D02*
D03*
X109843Y143307D02*
D03*
X114764Y163976D02*
D03*
X131496Y210236D02*
D03*
X128543Y196457D02*
D03*
Y192520D02*
D03*
X130315Y186614D02*
D03*
X129527Y183661D02*
D03*
X141339Y211221D02*
D03*
X143194Y171274D02*
D03*
X134449Y183661D02*
D03*
X144291Y217126D02*
D03*
X114764Y142323D02*
D03*
X110827Y149213D02*
D03*
X125591Y127559D02*
D03*
X118701Y213189D02*
D03*
X149213Y141339D02*
D03*
X140354Y108858D02*
D03*
X130253Y134707D02*
D03*
X126575Y194488D02*
D03*
X130512Y190551D02*
D03*
X135433Y195472D02*
D03*
X137760Y179759D02*
D03*
X134843Y179625D02*
D03*
X129528Y219142D02*
D03*
X132480Y215158D02*
D03*
X117302Y156517D02*
D03*
X120220Y156651D02*
D03*
X122870Y150949D02*
D03*
X137760D02*
D03*
X140410Y156651D02*
D03*
X143194Y159435D02*
D03*
X137626Y153867D02*
D03*
X140544Y153733D02*
D03*
X117436Y159435D02*
D03*
X123003Y153867D02*
D03*
X125787Y151083D02*
D03*
X134843D02*
D03*
X143328Y156517D02*
D03*
X146112Y159301D02*
D03*
X137626Y176842D02*
D03*
X140410Y174058D02*
D03*
X140544Y176976D02*
D03*
X120220Y174058D02*
D03*
X123003Y176842D02*
D03*
X128543Y210236D02*
D03*
X114518Y171408D02*
D03*
X117302Y174192D02*
D03*
X120086Y176976D02*
D03*
X117436Y171274D02*
D03*
X122870Y179759D02*
D03*
X125787Y179625D02*
D03*
D62*
X100000Y190354D02*
X160630D01*
D63*
X147323Y201614D02*
D03*
X113307D02*
D03*
D64*
Y222716D02*
D03*
X147323D02*
D03*
D65*
X130315Y165354D02*
D03*
M02*
